<?xml version="1.0" standalone="no"?>
<!DOCTYPE svg PUBLIC "-//W3C//DTD SVG 1.1//EN" "http://www.w3.org/Graphics/SVG/1.1/DTD/svg11.dtd" >
<svg xmlns="http://www.w3.org/2000/svg">
<metadata></metadata>
<defs>
<font id="hibu_co_textregular" horiz-adv-x="1335" >
<font-face units-per-em="2048" ascent="1638" descent="-410" />
<missing-glyph horiz-adv-x="493" />
<glyph unicode="&#xfb01;" horiz-adv-x="1280" d="M35 940q0 33 10 56.5t14 31.5h168v98q0 96 29 168t81 120t122.5 71.5t154.5 23.5q74 0 116 -10t67 -20q39 -16 61.5 -38t22.5 -57q0 -33 -17.5 -59.5t-36.5 -40.5q-16 16 -66 40t-126 24q-57 0 -94 -17.5t-59.5 -48.5t-32 -73t-9.5 -91v-90h236q96 0 96 -88 q0 -33 -9 -56.5t-13 -31.5h-310v-852h-213v852h-94q-98 0 -98 88zM885 0v932q0 51 29.5 73.5t82.5 22.5q35 0 62.5 -7t38.5 -11v-1010h-213z" />
<glyph unicode="&#xfb02;" horiz-adv-x="1298" d="M35 940q0 33 10 56.5t14 31.5h168v74q0 109 36 186.5t99.5 126.5t149.5 71.5t184 22.5q82 0 156 -11t130 -24.5t92 -26.5t42 -17v-1430h-213v1321q-20 6 -73.5 16.5t-124.5 10.5q-135 0 -200 -62.5t-65 -181.5v-76h222q96 0 96 -88q0 -33 -9.5 -56.5t-13.5 -31.5h-295 v-852h-213v852h-94q-98 0 -98 88z" />
<glyph unicode="&#xfb03;" horiz-adv-x="1970" d="M35 940q0 33 10 56.5t14 31.5h168v98q0 96 29 168t81 120t122.5 71.5t154.5 23.5q74 0 116 -10t67 -20q39 -16 61.5 -38t22.5 -57q0 -33 -17.5 -59.5t-36.5 -40.5q-16 16 -66 40t-126 24q-57 0 -94 -17.5t-59.5 -48.5t-32 -73t-9.5 -91v-90h478v98q0 96 28.5 168 t80.5 120t123 71.5t155 23.5q74 0 115.5 -10t66.5 -20q39 -16 61.5 -37t22.5 -58q0 -35 -17.5 -60.5t-35.5 -39.5q-16 16 -66.5 40t-126.5 24q-57 0 -94 -17.5t-59.5 -48.5t-32 -73t-9.5 -91v-90h236q96 0 96 -88q0 -33 -9 -56.5t-13 -31.5h-310v-852h-212v852h-478v-852 h-213v852h-94q-98 0 -98 88zM1575 0v932q0 51 29.5 73.5t83.5 22.5q35 0 62.5 -7t37.5 -11v-1010h-213z" />
<glyph unicode="&#xfb04;" horiz-adv-x="1998" d="M35 940q0 33 10 56.5t14 31.5h168v98q0 96 29 168t81 120t122.5 71.5t154.5 23.5q74 0 116 -10t67 -20q39 -16 61.5 -37t22.5 -58q0 -35 -17.5 -60.5t-36.5 -39.5q-16 16 -66 40t-126 24q-57 0 -94 -17.5t-59.5 -48.5t-32 -73t-9.5 -91v-90h490v84q0 104 34.5 180t96 124 t145.5 70.5t183 22.5q82 0 156.5 -11t132 -24.5t94 -26.5t45.5 -17v-1430h-213v1321q-10 4 -68.5 15.5t-134.5 11.5q-137 0 -197.5 -64.5t-60.5 -183.5v-72h219q96 0 96 -88q0 -33 -9 -56.5t-13 -31.5h-293v-852h-213v852h-490v-852h-213v852h-94q-98 0 -98 88z" />
<glyph unicode="&#xd;" horiz-adv-x="493" />
<glyph horiz-adv-x="0" />
<glyph horiz-adv-x="0" />
<glyph unicode=" "  horiz-adv-x="493" />
<glyph unicode="&#x09;" horiz-adv-x="493" />
<glyph unicode="&#xa0;" horiz-adv-x="493" />
<glyph unicode="!" horiz-adv-x="522" d="M111 117q0 61 44 105t107 44q61 0 104.5 -44t43.5 -105t-43 -105.5t-105 -44.5q-63 0 -107 44t-44 106zM154 446v861q0 100 112 100q35 0 62.5 -8t38.5 -15v-938h-213z" />
<glyph unicode="&#x22;" horiz-adv-x="1036" d="M188 870v541q0 98 115 98q35 0 62.5 -8t37.5 -12v-619h-215zM633 870v541q0 98 112 98q35 0 64 -8t39 -12v-619h-215z" />
<glyph unicode="#" horiz-adv-x="1599" d="M115 449q0 29 9 53t15 35h277l61 360h-164q-57 0 -80.5 24.5t-23.5 67.5q0 29 8 53.5t14 34.5h279l47 281q8 41 30.5 62.5t69.5 21.5q33 0 57.5 -10.5t33.5 -16.5l-58 -338h346l47 281q8 41 31 62.5t70 21.5q33 0 57.5 -10.5t32.5 -16.5l-57 -338h161q57 0 82 -24.5 t25 -67.5q0 -31 -9.5 -54.5t-15.5 -33.5h-274l-62 -360h160q59 0 83 -25t24 -68q0 -31 -8.5 -55t-14.5 -35h-274l-62 -354h-182l61 354h-344l-61 -354h-182l61 354h-164q-59 0 -82.5 24.5t-23.5 70.5zM598 537h344l62 360h-345z" />
<glyph unicode="$" d="M90 174l100 143q14 -12 47 -34.5t82.5 -46t116 -43t150.5 -27.5v459q-90 25 -174 52.5t-148.5 70.5t-103.5 108.5t-39 165.5q0 74 23.5 141.5t79 120.5t144.5 90t218 47v154q0 27 17.5 43t49.5 16q29 0 46.5 -5t23.5 -9v-201q80 -4 141.5 -17t105.5 -28.5t72.5 -32 t40.5 -24.5q33 -23 45.5 -45.5t12.5 -48.5q0 -43 -22.5 -76t-45.5 -49q-16 18 -45 41.5t-72 45t-101 40t-132 24.5v-444q119 -25 209 -55.5t151.5 -76.5t92 -110.5t30.5 -154.5q0 -82 -27.5 -153t-86 -125t-150.5 -89t-219 -45v-225h-137v225q-102 6 -183 28.5t-143.5 50 t-104.5 55.5t-65 44zM330 1042q0 -76 60.5 -131t195.5 -80v420q-139 -12 -197.5 -67.5t-58.5 -141.5zM723 164q135 16 196.5 72.5t61.5 144.5q0 51 -16.5 86t-48 60.5t-81 42t-112.5 30.5v-436z" />
<glyph unicode="%" horiz-adv-x="2037" d="M90 1116q0 82 32 153.5t87 125t128 84t155 30.5t155.5 -30.5t128.5 -84t87 -125t32 -153.5t-32 -153.5t-87 -124t-129 -83t-155 -30.5q-82 0 -155 30.5t-128 83t-87 124t-32 153.5zM262 1116q0 -47 18.5 -90t49 -74.5t72.5 -50t90 -18.5q47 0 89 18.5t72.5 50t49 74.5 t18.5 90q0 49 -18.5 92t-49 76t-72.5 51.5t-89 18.5t-89.5 -18.5t-73 -51.5t-49 -76t-18.5 -92zM492 0l831 1438q16 27 37.5 49t75.5 22q41 0 65.5 -18t34.5 -37l-842 -1454h-202zM1145 365q0 82 31.5 153.5t87 124.5t128 84t154.5 31t156 -31t128 -84t86 -124.5t32 -153.5 t-32 -154t-86 -125t-128 -84t-156 -31t-154.5 31t-128 84t-87 125t-31.5 154zM1317 365q0 -49 18.5 -91.5t49 -75t72.5 -51t89 -18.5t89 18.5t74 51t50.5 75t18.5 91.5t-18.5 91t-50.5 74.5t-74 51t-89 18.5t-89 -18.5t-72.5 -51t-49 -74.5t-18.5 -91z" />
<glyph unicode="&#x26;" horiz-adv-x="1454" d="M82 371q0 82 28.5 145.5t75.5 111.5t109.5 84t128.5 66q-74 92 -104.5 162t-30.5 147q0 76 27.5 141.5t77.5 113t121 74t155 26.5t152.5 -25.5t116.5 -72t73.5 -107.5t25.5 -131q0 -72 -23.5 -128t-62.5 -101.5t-90 -80t-108 -65.5l272 -299q20 33 37.5 68l36.5 73 q29 63 59.5 91t85.5 28q45 0 76 -14t41 -23q-4 -25 -15.5 -53.5t-23.5 -54.5q-35 -74 -73 -142.5t-79 -130.5l250 -274h-276l-111 117q-82 -72 -188.5 -112t-251.5 -40q-92 0 -183.5 22.5t-164 72t-118.5 126t-46 185.5zM303 381q0 -59 26.5 -102t69.5 -71t97.5 -41 t111.5 -13q88 0 159 28.5t130 81.5l-344 371q-51 -25 -97 -50.5t-80 -56t-53.5 -66.5t-19.5 -81zM496 1092q0 -35 14 -67t34.5 -60.5t43 -52t39.5 -42.5q86 41 144 91.5t58 128.5q0 31 -10 60.5t-30.5 54t-51 40t-73.5 15.5q-49 0 -81 -17.5t-51.5 -43t-27.5 -55t-8 -52.5z " />
<glyph unicode="'" horiz-adv-x="573" d="M178 870v541q0 98 115 98q35 0 62.5 -8t37.5 -12v-619h-215z" />
<glyph unicode="(" horiz-adv-x="770" d="M135 618q0 199 41 355.5t115 268.5t176 178.5t225 86.5v-182q-158 -55 -246 -229.5t-88 -477.5q0 -301 88.5 -476t245.5 -228v-184q-123 20 -225 86.5t-176 179.5t-115 268.5t-41 353.5z" />
<glyph unicode=")" horiz-adv-x="770" d="M78 -86q158 53 246 228t88 476q0 303 -88 477.5t-246 229.5v182q123 -20 225.5 -86.5t176 -178.5t114.5 -268.5t41 -355.5t-41 -354t-114.5 -268t-176 -179.5t-225.5 -86.5v184z" />
<glyph unicode="*" horiz-adv-x="1175" d="M106 1098q0 45 9.5 73.5t24 45t31.5 22.5t36 6q23 0 40 -6t42 -16l217 -95l-17 287v8q0 41 29 63.5t76 22.5q31 0 59.5 -8t32.5 -12l-16 -361l217 95q25 10 43 16t41 6q35 0 66.5 -28.5t31.5 -110.5v-8l-342 -107l229 -301l-151 -104l-215 321l-215 -321l-154 104 l228 301z" />
<glyph unicode="+" d="M154 698q0 35 10 61.5t14 35.5h389v323q0 92 105 92q33 0 59.5 -7t34.5 -11v-397h313q102 0 103 -97q0 -35 -10.5 -60.5t-14.5 -33.5h-391v-414h-199v414h-311q-102 0 -102 94z" />
<glyph unicode="," horiz-adv-x="573" d="M102 -311q6 6 31 34.5t52.5 69.5t53 91t31.5 98q-143 16 -143 149q0 66 43 107t111 41q63 0 114 -47.5t51 -157.5q0 -94 -35.5 -177t-80.5 -147.5t-83 -103.5t-44 -43z" />
<glyph unicode="-" horiz-adv-x="741" d="M109 561q0 35 9 60.5t13 40.5h391q61 0 86 -31t25 -78q0 -35 -9.5 -60.5t-13.5 -39.5h-391q-61 0 -85.5 30.5t-24.5 77.5z" />
<glyph unicode="." horiz-adv-x="573" d="M133 121q0 66 45 110.5t111 44.5q63 0 107 -44.5t44 -110.5q0 -63 -44 -108.5t-107 -45.5q-66 0 -111 45t-45 109z" />
<glyph unicode="/" horiz-adv-x="745" d="M27 -35l469 1462q10 35 32.5 58.5t77.5 23.5q45 0 74 -14t37 -20l-481 -1510h-209z" />
<glyph unicode="0" d="M102 684q0 168 38 301t111 227.5t178.5 144.5t238.5 50t238.5 -50t178 -144.5t110.5 -227.5t38 -301t-38 -301t-110.5 -226.5t-178 -142.5t-238.5 -49t-238.5 49t-178.5 142.5t-111 226.5t-38 301zM328 684q0 -113 19.5 -211t61.5 -172t105.5 -117t153.5 -43 q88 0 152.5 43t106.5 117t61.5 172t19.5 211t-19.5 212t-61.5 173t-106.5 117t-152.5 43q-90 0 -153.5 -43t-105.5 -117t-61.5 -173t-19.5 -212z" />
<glyph unicode="1" d="M246 983q0 35 20.5 63.5t61.5 57.5l270 203q41 31 77 46t89 15t81.5 -11t35.5 -18v-1339h-215v1118l-318 -241q-14 2 -32.5 10t-34 21.5t-25.5 31.5t-10 43z" />
<glyph unicode="2" d="M184 0v180q25 18 86.5 62.5t134 100.5t146.5 116.5t125 109.5q47 45 90 91.5t75.5 95.5t52 101t19.5 112q0 47 -14 94t-48 84t-90 60.5t-143 23.5q-78 0 -133 -23.5t-91 -56.5t-56.5 -66.5t-26.5 -52.5q-59 10 -92 39t-33 70q0 63 56 123q12 14 42.5 38.5t79 47t116 40 t153.5 17.5q125 0 219 -32t157.5 -89t96.5 -136t33 -173q0 -72 -19.5 -135.5t-50.5 -116.5t-68.5 -99t-74.5 -85q-41 -41 -103.5 -95.5t-127 -106.5t-119 -94t-76.5 -57h651v-188h-967z" />
<glyph unicode="3" d="M156 100l90 160q18 -12 54 -32.5t86 -39t113.5 -33t137.5 -14.5q156 0 235.5 61.5t79.5 176.5q0 117 -87 172t-236 55h-121q-6 8 -16.5 35t-10.5 61q0 47 27 71t86 24h39q143 0 219 59t76 162q0 102 -72 162.5t-221 60.5q-84 0 -143.5 -23.5t-97.5 -55.5t-56.5 -62.5 t-24.5 -44.5q-59 4 -89.5 35.5t-30.5 72.5q0 53 36 99q14 18 44 42.5t80 47t122 39t170 16.5q137 0 233.5 -32t157 -84t87 -117.5t26.5 -135.5q0 -68 -22.5 -122t-57.5 -95t-78 -69.5t-86 -44.5q141 -37 207 -128.5t66 -207.5q0 -90 -34 -164t-100.5 -128t-165 -84 t-225.5 -30q-104 0 -189 17.5t-147.5 40t-103.5 45t-57 32.5z" />
<glyph unicode="4" d="M121 530q0 119 66.5 246t158.5 240q63 76 129 143.5t133.5 118.5t134 81t129.5 30q66 0 101 -15.5t45 -21.5v-858h98q53 0 75.5 -24t22.5 -67q0 -33 -8 -58.5t-14 -35.5h-174v-309h-211v309h-363q-90 0 -152.5 13.5t-100 41t-54 69.5t-16.5 97zM332 580q0 -55 42 -70.5 t101 -15.5h332v698q-51 -23 -131 -89.5t-166 -170.5q-76 -92 -127 -186.5t-51 -165.5z" />
<glyph unicode="5" d="M164 82l86 156q4 -2 28.5 -17.5t69.5 -34t110.5 -33t155.5 -14.5q178 0 256 74t78 186q0 53 -17.5 102.5t-59.5 86.5t-111.5 58.5t-173.5 21.5q-117 0 -198 -19.5t-132 -36.5l20 633q2 53 33 88t97 35h591q113 0 113 -94q0 -35 -11.5 -60.5t-17.5 -35.5h-616l-12 -353 q35 6 85 12.5t121 6.5q143 0 241.5 -37t159 -97.5t86 -138t25.5 -159.5q0 -98 -34.5 -180t-103 -141.5t-173 -92.5t-244.5 -33q-98 0 -177 15.5t-136 35t-92 39t-47 27.5z" />
<glyph unicode="6" d="M139 444q0 135 59.5 253t147.5 237l299 401q20 27 48 49.5t87 22.5q51 0 81 -21.5t40 -35.5l-352 -478q18 12 66.5 25.5t105.5 13.5q113 0 201 -34.5t148 -96t92 -143.5t32 -176q0 -109 -40 -200t-110.5 -156.5t-168 -102.5t-209.5 -37q-115 0 -211.5 36t-167 100.5 t-109.5 151.5t-39 191zM352 446q0 -68 22.5 -126t64.5 -100t99.5 -65.5t125.5 -23.5q70 0 128 23.5t98 65.5t62.5 100t22.5 126q0 145 -87 229.5t-224 84.5q-68 0 -125.5 -23.5t-98.5 -64.5t-64.5 -99.5t-23.5 -126.5z" />
<glyph unicode="7" d="M150 1270q0 35 10 61.5t16 36.5h840q145 0 145 -115q0 -29 -12 -69.5t-35 -91.5t-58.5 -132t-78.5 -178.5t-92 -206t-95.5 -213t-87 -198.5t-71.5 -164h-221q31 72 71.5 165t87.5 197.5t96.5 215t96.5 218t91 205t79 175.5h-678q-104 0 -104 94z" />
<glyph unicode="8" d="M117 365q0 47 13 95t42 93t75 82t111 61q-57 27 -97 65t-65.5 80t-37 87t-11.5 88q0 86 34 157.5t100.5 124t163 81t223.5 28.5q125 0 222 -28.5t163.5 -81t100.5 -124t34 -157.5q0 -43 -11.5 -88t-37 -87t-65.5 -80t-97 -65q68 -27 114 -63.5t74.5 -80.5t41 -92 t12.5 -95q0 -88 -35 -162t-104.5 -126t-172 -82t-239.5 -30t-240.5 30t-172.5 82t-103.5 125.5t-34.5 162.5zM338 373q0 -106 83 -172t247 -66t246.5 66t82.5 172t-83 171.5t-246 65.5q-164 0 -247 -65.5t-83 -171.5zM360 1008q0 -102 75 -169t233 -67t233.5 67t75.5 169 t-76 168.5t-233 66.5q-158 0 -233 -66.5t-75 -168.5z" />
<glyph unicode="9" d="M139 905q0 109 40 201t111.5 158.5t168 104.5t211.5 38t211 -37t166.5 -101.5t109.5 -153.5t39 -193q0 -68 -17.5 -132.5t-45 -125t-64.5 -115.5t-74 -107l-340 -458h-245l378 512q-20 -14 -63 -27.5t-115 -13.5q-111 0 -198.5 34.5t-148 96t-92.5 143.5t-32 176z M356 922q0 -74 23.5 -132.5t65.5 -99.5t100.5 -62.5t126.5 -21.5t125 23.5t99 65.5t65.5 99.5t23.5 127.5q0 68 -23.5 126t-65.5 101t-99.5 66.5t-124.5 23.5q-70 0 -128.5 -23.5t-99.5 -66.5t-64.5 -101t-23.5 -126z" />
<glyph unicode=":" horiz-adv-x="573" d="M133 121q0 66 45 110.5t111 44.5q63 0 107 -44.5t44 -110.5q0 -63 -44 -108.5t-107 -45.5q-66 0 -111 45t-45 109zM133 872q0 66 45 111t111 45q63 0 107 -45t44 -111q0 -63 -44 -107t-107 -44q-66 0 -111 44t-45 107z" />
<glyph unicode=";" horiz-adv-x="573" d="M102 -311q6 6 31 34.5t52.5 69.5t53 91t31.5 98q-143 16 -143 149q0 66 43 107t111 41q63 0 114 -47.5t51 -157.5q0 -94 -35.5 -177t-80.5 -147.5t-83 -103.5t-44 -43zM133 872q0 66 45 111t111 45q63 0 107 -45t44 -111q0 -63 -44 -107t-107 -44q-66 0 -111 44t-45 107z " />
<glyph unicode="&#x3c;" d="M170 696q0 43 13.5 72t23.5 39l958 391v-211l-753 -285l753 -286v-213l-903 368q-55 23 -73.5 53.5t-18.5 71.5z" />
<glyph unicode="=" d="M154 430q0 35 10 61.5t14 34.5h901q102 0 103 -96q0 -35 -10.5 -60.5t-14.5 -33.5h-901q-102 0 -102 94zM154 967q0 35 10 61.5t14 34.5h901q102 0 103 -96q0 -35 -10.5 -60.5t-14.5 -34.5h-901q-102 0 -102 95z" />
<glyph unicode="&#x3e;" d="M170 205v211l754 286l-754 285v213l903 -369q55 -23 73.5 -53t18.5 -71q0 -43 -13 -72t-24 -39z" />
<glyph unicode="?" horiz-adv-x="1146" d="M76 1194q0 14 10 55t54 84t135.5 76t252.5 33q131 0 224.5 -33t152 -88t85 -125t26.5 -143q0 -72 -17.5 -128.5t-46 -100.5t-65.5 -77.5t-76 -64.5q-55 -43 -96 -71.5t-67.5 -54.5t-40 -55.5t-13.5 -76.5h-211q0 70 12.5 119t36 86t59 64.5t84.5 56.5q106 61 164 126.5 t58 161.5q0 47 -15.5 90t-50.5 75t-89 51.5t-132 19.5q-86 0 -143.5 -25.5t-94 -58.5t-55 -64.5t-22.5 -44.5q-119 16 -119 113zM340 115q0 63 44 106t105 43t104.5 -43t43.5 -106q0 -61 -43 -103.5t-105 -42.5q-61 0 -105 42t-44 104z" />
<glyph unicode="@" horiz-adv-x="2080" d="M125 508q0 205 71.5 377t196.5 296t292 192.5t355 68.5q199 0 366 -69.5t289 -191.5t190.5 -289t68.5 -364q0 -63 -9.5 -129.5t-22.5 -130t-30.5 -117t-31.5 -88.5q-47 -6 -240 -20t-496 -14q-270 0 -392 72.5t-122 232.5q0 145 98.5 220t311.5 75q78 0 142.5 -5.5 t80.5 -9.5v17q0 127 -70.5 174t-191.5 47q-92 0 -152.5 -22.5t-99.5 -45.5q-16 14 -28.5 39t-12.5 54q0 61 81 92.5t228 31.5q227 0 331 -99t104 -263v-457q12 0 46.5 1t76.5 3t83 5.5t66 5.5q4 10 12 38.5t17.5 72.5t15.5 99.5t6 116.5q0 158 -52 292t-146.5 232.5 t-225.5 153.5t-291 55q-152 0 -282.5 -54t-227 -152.5t-152.5 -236.5t-56 -306t56 -305t155.5 -235.5t236.5 -152t297 -53.5q168 0 266.5 18.5t134.5 33.5l54 -166q-51 -18 -168 -42t-297 -24q-197 0 -367 68.5t-296 191.5t-197.5 293t-71.5 373zM803 328q0 -80 69.5 -114 t223.5 -34h147v295q-23 4 -73 9t-130 5q-129 0 -183 -39.5t-54 -121.5z" />
<glyph unicode="A" horiz-adv-x="1509" d="M35 0q63 172 137 356.5t144.5 356.5t134 319.5t108.5 243.5q41 90 85 124t112 34q63 0 96 -20.5t49 -37.5q37 -63 88 -174.5t108.5 -246t116 -280t109.5 -277.5t91 -237.5t61 -160.5h-238q-10 23 -25.5 64.5t-34 92t-39 104.5t-38.5 104h-707q-47 -117 -82 -213.5 t-55 -151.5h-221zM467 553h559q-37 98 -79 201.5t-80 196.5t-68.5 166t-48.5 108q-23 -47 -54.5 -120t-69.5 -162t-79 -189.5t-80 -200.5z" />
<glyph unicode="B" horiz-adv-x="1390" d="M188 0v1284q0 59 32 91t97 32h394q121 0 208 -29.5t142 -79t81.5 -116t26.5 -140.5q0 -72 -22.5 -125t-53 -91t-63.5 -61.5t-53 -31.5q53 -14 100 -44t83 -74t56.5 -101t20.5 -125q0 -61 -21.5 -130t-75 -126t-144.5 -95t-232 -38h-576zM406 180h342q135 0 198.5 62.5 t63.5 160.5q0 45 -15.5 87t-47.5 73t-81 49.5t-116 18.5h-344v-451zM406 811h290q131 0 190.5 62.5t59.5 152.5q0 92 -62.5 146.5t-195.5 54.5h-282v-416z" />
<glyph unicode="C" horiz-adv-x="1402" d="M115 700q0 172 56 310.5t154.5 233.5t231.5 146.5t285 51.5q158 0 262 -37t145 -68q35 -27 50.5 -53t15.5 -51t-10.5 -46.5t-23.5 -39t-28.5 -29.5t-25.5 -18q-18 20 -51 47t-82.5 50.5t-112.5 39.5t-139 16q-109 0 -200 -38.5t-157.5 -110.5t-103.5 -173.5t-37 -228.5 q0 -133 39 -234t106.5 -170t160.5 -104.5t204 -35.5q76 0 139.5 13t110.5 30.5t78.5 35t48.5 27.5l96 -166q-16 -12 -57 -34.5t-103.5 -44t-145.5 -38t-181 -16.5q-152 0 -284 48t-230.5 142.5t-154.5 230.5t-56 314z" />
<glyph unicode="D" horiz-adv-x="1556" d="M188 0v1284q0 59 33 91t98 32h365q172 0 310.5 -50t235.5 -141.5t148.5 -221t51.5 -289.5t-51.5 -290t-148.5 -222.5t-235.5 -142.5t-310.5 -50h-496zM410 184h262q129 0 227 39t164.5 108.5t101.5 165t35 208.5t-35 208t-101.5 164.5t-164.5 107.5t-227 38h-262v-1039z " />
<glyph unicode="E" horiz-adv-x="1275" d="M188 0v1284q0 59 32 91t97 32h707q102 0 102 -96q0 -35 -10 -61.5t-16 -37.5h-690v-397h585q102 0 103 -96q0 -35 -10.5 -61.5t-16.5 -36.5h-661v-428h706v-193h-928z" />
<glyph unicode="F" horiz-adv-x="1153" d="M188 0v1284q0 59 32 91t97 32h639q104 0 105 -96q0 -35 -10.5 -61.5t-16.5 -37.5h-624v-417h487q102 0 102 -97q0 -35 -10 -61.5t-16 -36.5h-563v-600h-222z" />
<glyph unicode="G" horiz-adv-x="1521" d="M127 702q0 172 57.5 308.5t158.5 232.5t239.5 147.5t302.5 51.5q80 0 146.5 -10.5t117.5 -25.5t88 -33.5t57 -33.5q35 -25 50.5 -52t15.5 -52t-10.5 -45.5t-24.5 -36.5t-29.5 -27.5t-25.5 -17.5q-18 20 -52 47t-83.5 49.5t-114 39t-141.5 16.5q-113 0 -208.5 -38 t-165 -110t-108.5 -175t-39 -235q0 -141 42 -245.5t118 -172t181.5 -100t230.5 -32.5q92 0 143 6t68 10v414h-236q-104 0 -104 94q0 35 10 61.5t16 36.5h402q127 0 127 -121v-655q-8 -2 -46 -7t-97.5 -11.5t-135.5 -10.5t-162 -4q-172 0 -316 46t-248.5 138.5t-164 230.5 t-59.5 322z" />
<glyph unicode="H" horiz-adv-x="1552" d="M188 0v1303q0 53 31 78.5t86 25.5q35 0 64.5 -9t40.5 -16v-557h733v478q0 104 114 104q37 0 66 -10.5t39 -14.5v-1382h-219v635h-733v-635h-222z" />
<glyph unicode="I" horiz-adv-x="598" d="M188 0v1303q0 53 31 78.5t86 25.5q35 0 64.5 -9t40.5 -16v-1382h-222z" />
<glyph unicode="J" horiz-adv-x="1128" d="M27 162l135 133q8 -12 30.5 -38t59.5 -50.5t88 -44t119 -19.5q135 0 200.5 73t65.5 247v840q0 53 30.5 78.5t86.5 25.5q35 0 63.5 -9t38.5 -16v-915q0 -113 -24.5 -205t-81 -158.5t-147.5 -102.5t-224 -36q-111 0 -191.5 27.5t-134 62.5t-81 67t-33.5 40z" />
<glyph unicode="K" horiz-adv-x="1372" d="M188 0v1303q0 53 31 78.5t86 25.5q35 0 64.5 -9t40.5 -16v-581q51 49 126.5 117.5t158.5 143.5t164 145.5t140 121.5q41 37 74 57.5t88 20.5q31 0 56.5 -10.5t43 -22.5t27.5 -24.5t15 -16.5q-20 -18 -71.5 -61t-117 -100.5t-139.5 -121t-141.5 -124t-121 -108.5 t-79.5 -75q209 -182 393 -369.5t326 -373.5h-275q-59 74 -139 161t-169 175t-182 171t-177 144v-651h-222z" />
<glyph unicode="L" horiz-adv-x="1146" d="M188 0v1303q0 53 31 78.5t86 25.5q35 0 64.5 -9t40.5 -16v-1189h686v-193h-908z" />
<glyph unicode="M" horiz-adv-x="1859" d="M168 0q2 53 7 154.5t11.5 225.5t13.5 260t14 261t12 225.5t10 153.5q4 61 42.5 94t98.5 33q59 0 100 -17.5t62 -39.5q16 -35 45.5 -95.5t65.5 -135.5t76 -156.5t78 -160.5t72.5 -147.5t59.5 -117.5q33 63 83 167.5t104.5 216t102.5 212t74 155.5q25 51 62 85t113 34 q59 0 93 -15.5t44 -23.5q4 -57 10 -164.5t13 -241t15.5 -278.5t16.5 -278.5t13.5 -241t9.5 -164.5h-215q-2 33 -7.5 119t-11.5 200.5t-13 241.5t-13.5 239.5t-11.5 198.5t-7 117q-20 -43 -51 -108.5t-68 -141t-75.5 -158.5t-76.5 -161t-72 -147.5t-58 -118.5h-162 q-37 74 -89 182t-108.5 226t-111 231.5t-95.5 195.5q-2 -47 -7 -135t-11 -196.5t-12 -226.5t-12.5 -225.5t-10.5 -195.5t-6 -137h-217z" />
<glyph unicode="N" horiz-adv-x="1558" d="M188 0v1290q0 43 35 80t105 37q53 0 87 -17.5t52 -29.5q20 -27 65.5 -89.5t102.5 -146.5t124.5 -185t137.5 -206.5t135.5 -208t118.5 -188.5v967q0 53 30.5 78.5t84.5 25.5q37 0 65.5 -9t38.5 -16v-1382h-231q-51 78 -113.5 175t-130.5 202.5t-137.5 212t-134 203 t-121 177.5t-96.5 136v-1106h-218z" />
<glyph unicode="O" horiz-adv-x="1697" d="M127 705q0 158 53 293t148.5 233t227.5 154.5t292 56.5t293 -56.5t228 -154.5t148.5 -233t53.5 -293t-53.5 -293.5t-148.5 -234.5t-228 -155.5t-293 -56.5t-292 56.5t-227.5 155.5t-148.5 234.5t-53 293.5zM358 705q0 -119 35 -220.5t99.5 -175t155.5 -115.5t202 -42 t201 42t154.5 115.5t99 175t34.5 220.5t-34.5 219t-99 173.5t-154.5 114.5t-201 41t-202 -41t-155.5 -114.5t-99.5 -174t-35 -218.5z" />
<glyph unicode="P" horiz-adv-x="1292" d="M188 0v1284q0 59 33 91t98 32h390q119 0 209 -37t148 -99.5t88 -145.5t30 -175q0 -88 -31 -171t-97.5 -146.5t-170 -102t-246.5 -38.5q-98 0 -157.5 9t-75.5 13v-514h-218zM406 694q18 -6 70 -14t122 -8q100 0 169 22.5t111 60.5t60 88t18 107t-15 107.5t-50 88.5 t-91.5 59.5t-140.5 21.5h-253v-533z" />
<glyph unicode="Q" horiz-adv-x="1697" d="M127 705q0 158 53 293t148.5 233t227.5 154.5t292 56.5t293 -56.5t228 -154.5t148.5 -233t53.5 -293q0 -174 -66.5 -319.5t-181.5 -246.5l182 -237l-159 -121l-193 252q-135 -68 -305 -68q-160 0 -292 56.5t-227.5 155.5t-148.5 234.5t-53 293.5zM358 705 q0 -119 35 -220.5t99.5 -175t155.5 -115.5t202 -42q100 0 182 41l-147 192q-16 23 -25.5 42t-9.5 42q0 47 47 73.5t98 28.5l203 -266q66 72 103.5 175.5t37.5 224.5q0 119 -34.5 219t-99 173.5t-154.5 114.5t-201 41t-202 -41t-155.5 -114.5t-99.5 -174t-35 -218.5z" />
<glyph unicode="R" horiz-adv-x="1343" d="M190 0v1284q0 121 129 121h361q123 0 214 -35t152.5 -94t92 -139t30.5 -170q0 -123 -65.5 -230.5t-192.5 -163.5q47 -53 99.5 -128.5t102.5 -155.5t93 -156t72 -133h-256q-16 37 -51 101.5t-81 139t-97.5 150.5t-102.5 135q-14 -2 -24.5 -2h-22.5q-88 0 -142.5 4t-94.5 9 v-537h-216zM406 719q10 -4 58 -9t130 -5q94 0 160.5 19t108.5 55t60.5 84.5t18.5 103.5q0 111 -72.5 185.5t-230.5 74.5h-233v-508z" />
<glyph unicode="S" horiz-adv-x="1325" d="M96 133l103 158q16 -12 53 -38t93 -50.5t132 -44t172 -19.5q168 0 240 60.5t72 162.5q0 51 -19.5 88t-55.5 64t-83 44t-103 32l-182 47q-78 20 -148.5 51t-126 77t-88 110.5t-32.5 154.5q0 80 26.5 153.5t88 131t159 92.5t238.5 35q96 0 167.5 -11.5t122 -28t82 -32.5 t48.5 -29q35 -25 50 -52t15 -52t-10 -45.5t-24.5 -36.5t-30 -27.5t-25.5 -17.5q-18 23 -50 50.5t-80 51t-112.5 40t-148.5 16.5t-140.5 -17.5t-91 -48.5t-50 -69.5t-15.5 -81.5q0 -90 61.5 -138.5t190.5 -81.5l172 -43q100 -25 178 -57.5t132 -79.5t83 -110.5t29 -149.5 q0 -94 -31 -172t-95.5 -134t-165.5 -88t-243 -32q-127 0 -223 21.5t-165.5 50.5t-111.5 56.5t-57 39.5z" />
<glyph unicode="T" horiz-adv-x="1273" d="M41 1309q0 35 10 61.5t17 36.5h1060q104 0 105 -96q0 -35 -10.5 -61.5t-16.5 -37.5h-475v-1212h-221v1212h-365q-104 0 -104 97z" />
<glyph unicode="U" horiz-adv-x="1585" d="M172 618v685q0 53 30.5 78.5t86.5 25.5q35 0 63.5 -9t38.5 -16v-743q0 -115 20.5 -205t67.5 -153.5t124 -97t190 -33.5t189.5 33.5t123.5 97t67.5 153.5t20.5 205v664q0 104 115 104q37 0 65.5 -9t38.5 -16v-764q0 -324 -152.5 -488.5t-467.5 -164.5t-468 165t-153 488z " />
<glyph unicode="V" horiz-adv-x="1433" d="M35 1305q0 37 24.5 68.5t83.5 31.5q47 0 74 -11.5t27 -13.5q39 -115 94 -266t117.5 -314t127 -320.5t119.5 -284.5q20 47 53 124.5t70 174t78 203t81 212t77 202.5t65 175q25 66 55.5 92.5t94.5 26.5q45 0 76.5 -16.5t42.5 -20.5q-16 -43 -51 -134t-83.5 -210 t-103.5 -256t-113.5 -274.5t-114 -265.5t-102.5 -228h-258q-72 141 -142.5 298t-132 304.5t-112.5 273t-82 207.5q-12 33 -22 58.5t-19 48.5q-14 41 -19 66.5t-5 48.5z" />
<glyph unicode="W" horiz-adv-x="2062" d="M37 1298q0 43 25.5 76t89.5 33q47 0 71.5 -10.5t28.5 -14.5q14 -59 39.5 -147t56.5 -190.5t64.5 -213t67.5 -218t67 -205t59 -172.5q39 125 80 272t78 290.5t67.5 270.5t53.5 211q16 66 49 96.5t96 30.5q49 0 77 -10.5t40 -18.5q25 -111 58.5 -256t72.5 -299.5t79 -308.5 t77 -281q47 135 96 293t92 305.5t78 269.5t55 187q16 57 49 88t94 31q51 0 81 -17.5t36 -23.5q-37 -135 -89 -304t-112.5 -349.5t-127 -363.5t-132.5 -349h-258q-12 33 -32.5 101.5t-45 157.5t-52 193.5t-53.5 209t-50.5 203t-40.5 177.5q-31 -123 -70 -272t-78.5 -295.5 t-77.5 -273.5t-65 -201h-256q-31 74 -68.5 175t-77.5 213t-79 224.5t-72 209t-56.5 169t-33.5 103.5q-23 68 -37 119t-14 85z" />
<glyph unicode="X" horiz-adv-x="1355" d="M35 0q31 47 85 123t119.5 169t141.5 197.5t149 208.5q-59 76 -116.5 150t-106.5 136.5t-88 111.5t-61 80q-41 51 -57.5 79.5t-16.5 53.5q0 35 23.5 66.5t76.5 31.5q37 0 58.5 -8t29.5 -13q27 -35 67 -87t91 -118.5t109.5 -143t119.5 -158.5q55 76 105.5 147.5t91.5 128.5 t70.5 98t44.5 60q39 47 73.5 70.5t92.5 23.5q53 0 85.5 -21.5t43.5 -31.5q-31 -39 -81 -104.5t-113.5 -150.5t-137.5 -183.5t-150 -202.5q84 -111 166 -218.5t154 -202.5t128 -171t89 -121h-268q-27 39 -69 96.5t-94 128t-111.5 150.5t-123.5 162q-115 -160 -214 -303.5 t-158 -233.5h-248z" />
<glyph unicode="Y" horiz-adv-x="1376" d="M29 1305q0 35 21.5 68.5t84.5 33.5q41 0 63.5 -10.5t30.5 -16.5q18 -27 69.5 -103.5t116 -173.5t135.5 -199.5t132 -180.5q53 76 107.5 159t103.5 160.5t91 144t71 109.5q33 49 64.5 80t90.5 31q25 0 46.5 -6t38 -14.5t26.5 -16.5t12 -10q-16 -31 -51 -88.5t-81 -130 t-99 -155.5t-108.5 -165t-107.5 -157.5t-98 -133.5v-530h-229v532q-55 68 -119.5 154t-126 172t-115.5 162t-87 123q-35 47 -58.5 87t-23.5 75z" />
<glyph unicode="Z" horiz-adv-x="1304" d="M66 0v211q33 35 99 109.5t150 170t178.5 201t182.5 204.5t161.5 183t116.5 133h-743q-104 0 -105 97q0 35 10.5 61.5t16.5 36.5h934q156 0 156 -131q0 -53 -42 -107.5t-89 -113.5q-39 -49 -100.5 -120t-133.5 -154t-148.5 -170t-147 -165.5t-131 -145.5t-99.5 -107h882 v-193h-1148z" />
<glyph unicode="[" horiz-adv-x="786" d="M188 -270v1665q0 115 121 114h305q106 0 107 -94q0 -35 -11.5 -60.5t-17.5 -35.5h-293v-1399h310v-190h-521z" />
<glyph unicode="\" horiz-adv-x="745" d="M27 1475q8 6 37.5 20t74.5 14q53 0 77 -23.5t34 -58.5l467 -1462h-209z" />
<glyph unicode="]" horiz-adv-x="786" d="M63 1415q0 94 107 94h305q121 0 121 -114v-1665h-520v190h309v1399h-293q-6 10 -17.5 35.5t-11.5 60.5z" />
<glyph unicode="^" horiz-adv-x="1060" d="M84 690l299 610q35 70 74 88.5t82 18.5q35 0 60.5 -8t37.5 -17l340 -692h-205l-246 514l-245 -514h-197z" />
<glyph unicode="_" horiz-adv-x="1050" d="M23 -143h1003v-113h-1003v113z" />
<glyph unicode="`" horiz-adv-x="1024" d="M299 1358q0 8 6 27.5t20.5 39t36 34t56.5 14.5q27 0 47 -9.5t49 -31.5l211 -170l-72 -103z" />
<glyph unicode="a" horiz-adv-x="1218" d="M104 301q0 80 25 143.5t80 106.5t146 66.5t225 23.5q92 0 166.5 -4t99.5 -8v10q0 33 -6 61q-16 96 -89 146.5t-216 50.5q-59 0 -105.5 -10t-80.5 -23.5t-56.5 -29t-36.5 -25.5q-23 14 -39 41t-16 61q0 35 19.5 58.5t51.5 40.5q35 16 96.5 31.5t153.5 15.5 q123 0 221.5 -22.5t167 -75t105.5 -136.5t37 -205v-612q-37 -8 -155 -21.5t-306 -13.5q-154 0 -249 28t-148.5 74t-72 105.5t-18.5 122.5zM315 305q0 -41 12.5 -75.5t45.5 -59.5t88 -38t139 -13q104 0 163.5 8t80.5 14v340q-6 2 -31 4t-59.5 5.5t-74.5 5.5t-77 2 q-154 0 -220.5 -47.5t-66.5 -145.5z" />
<glyph unicode="b" horiz-adv-x="1312" d="M168 0v1413q0 96 113 96q33 0 60.5 -8t37.5 -12v-594q8 12 30.5 39t63.5 54.5t101.5 48t144.5 20.5q102 0 189 -35t151.5 -101.5t101.5 -164t37 -219.5q0 -129 -40 -233.5t-120 -178.5t-200.5 -114t-282.5 -40q-80 0 -147.5 4.5t-118.5 9.5t-82 9t-39 6zM379 160 q16 -6 65.5 -14.5t137.5 -8.5q104 0 179 28t123 79t70.5 121.5t22.5 154.5q0 168 -78 264.5t-225 96.5q-74 0 -129.5 -26t-92 -72t-55 -107.5t-18.5 -132.5v-383z" />
<glyph unicode="c" horiz-adv-x="1087" d="M115 510q0 129 42 230.5t115.5 172t173 107.5t213.5 37q70 0 122.5 -8.5t90 -20.5t60 -24.5t35.5 -20.5q20 -16 34.5 -38.5t14.5 -53.5q0 -25 -16.5 -58.5t-49.5 -58.5q-12 12 -34.5 30.5t-57.5 36t-81 30t-103 12.5q-72 0 -133.5 -23.5t-107.5 -70t-72.5 -115 t-26.5 -160.5q0 -96 26.5 -164.5t73.5 -115t108.5 -68t133.5 -21.5q51 0 94 10.5t76 22.5t54.5 24.5t29.5 18.5l90 -145q-18 -12 -51 -30.5t-79 -35t-105.5 -28t-133.5 -11.5q-113 0 -211 36t-169.5 104.5t-113.5 169t-42 229.5z" />
<glyph unicode="d" horiz-adv-x="1312" d="M115 537q0 123 36.5 220t100 163.5t150.5 101.5t190 35q84 0 144.5 -20.5t101.5 -48t63.5 -54.5t30.5 -39v518q0 96 112 96q35 0 63 -8t38 -12v-1489q-8 -2 -40 -6t-82 -9t-117.5 -9.5t-147.5 -4.5q-164 0 -285 40t-200.5 114t-118.5 178.5t-39 233.5zM336 520 q0 -84 22.5 -154.5t70.5 -121.5t123 -79t177 -28q90 0 138 8.5t65 14.5v383q0 72 -18.5 133t-55.5 107t-91 72t-128 26q-150 0 -226.5 -96.5t-76.5 -264.5z" />
<glyph unicode="e" horiz-adv-x="1212" d="M115 498q0 125 40 228t111.5 178t170 116t216.5 41q111 0 196 -30t141.5 -82t86 -123.5t29.5 -157.5q0 -119 -65.5 -186.5t-223.5 -67.5h-479q18 -129 107.5 -199t240.5 -70q117 0 191.5 24t101.5 40l65 -154q-10 -6 -41.5 -21.5t-82 -29.5t-117 -25.5t-144.5 -11.5 q-115 0 -214 33t-172.5 98.5t-115.5 166t-42 233.5zM332 563h432q74 0 106.5 26.5t32.5 98.5q0 39 -13 78t-44 69.5t-79 50t-116 19.5q-78 0 -137 -31.5t-99 -81t-60.5 -109.5t-22.5 -120z" />
<glyph unicode="f" horiz-adv-x="761" d="M35 940q0 33 10 56.5t14 31.5h168v98q0 96 29 168t81 120t125 71.5t159 23.5q102 0 151 -15t70 -26q20 -10 40.5 -28.5t20.5 -57.5q0 -33 -17.5 -59.5t-35.5 -42.5q-18 16 -67.5 42t-127.5 26q-63 0 -105 -17.5t-66.5 -48.5t-34 -73t-9.5 -91v-90h232q96 0 96 -88 q0 -33 -9 -56.5t-14 -31.5h-305v-852h-213v852h-94q-98 0 -98 88z" />
<glyph unicode="g" horiz-adv-x="1292" d="M111 569q0 109 38.5 199t106.5 155.5t161 101.5t201 36q49 0 96.5 -8.5t90.5 -24.5h319q53 0 75 -23.5t22 -64.5q0 -29 -10.5 -51.5t-16.5 -30.5h-184q66 -59 91 -142t25 -157q0 -117 -45 -206t-123 -154q55 -31 89 -67t52.5 -72.5t24.5 -70.5t6 -59q0 -84 -35.5 -150.5 t-101 -112.5t-157 -71.5t-199.5 -25.5q-117 0 -206 17.5t-149.5 40t-94 43t-40.5 26.5l89 158q10 -8 39.5 -26.5t77.5 -38t113.5 -34t147.5 -14.5q61 0 114.5 11t92.5 35t61.5 61.5t22.5 91.5q0 39 -25.5 86t-91.5 77q-33 -12 -82 -20t-88 -8q-111 0 -203.5 37t-160.5 102.5 t-105.5 155.5t-37.5 198zM322 569q0 -147 80.5 -237t215.5 -90q133 0 214 90t81 237t-80.5 236.5t-214.5 89.5q-135 0 -215.5 -90t-80.5 -236z" />
<glyph unicode="h" horiz-adv-x="1302" d="M168 0v1413q0 96 113 96q33 0 60.5 -8t37.5 -12v-584q12 18 37.5 45t66.5 51.5t101.5 42t140.5 17.5q186 0 299 -105.5t113 -312.5v-643h-211v600q0 135 -58.5 209t-199.5 74q-72 0 -126.5 -26t-90 -70t-54 -103t-18.5 -127v-557h-211z" />
<glyph unicode="i" horiz-adv-x="577" d="M156 1380q0 53 38.5 91t92.5 38q55 0 94 -38t39 -91t-39 -91t-94 -38q-53 0 -92 38t-39 91zM182 0v932q0 51 30 73.5t83 22.5q35 0 62.5 -7t37.5 -11v-1010h-213z" />
<glyph unicode="j" horiz-adv-x="577" d="M-199 -379l58 141q10 -6 51 -19t98 -13q35 0 66.5 9t55.5 30.5t38 58.5t14 90v1014q0 51 30 73.5t83 22.5q35 0 62.5 -7t37.5 -11v-1071q0 -102 -29.5 -173t-78.5 -114t-115 -62.5t-137 -19.5q-43 0 -81 6t-69.5 14.5t-53 17.5t-30.5 13zM156 1380q0 53 38.5 91t92.5 38 q55 0 94 -38t39 -91t-39 -91t-94 -38q-53 0 -92 38t-39 91z" />
<glyph unicode="k" horiz-adv-x="1157" d="M168 0v1413q0 96 113 96q33 0 60.5 -8t37.5 -12v-862q20 16 66.5 52t103.5 81t118.5 92t114.5 88q59 47 97.5 66.5t91.5 19.5q31 0 53.5 -10t39.5 -22.5t26.5 -25t11.5 -16.5q-14 -14 -52 -43.5t-89.5 -69.5t-107.5 -83t-107.5 -81t-91.5 -67.5t-54 -40.5 q88 -63 169 -137t151.5 -148.5t130 -147.5t102.5 -134h-266q-45 61 -105.5 127t-128 130.5t-138.5 123.5t-136 106v-487h-211z" />
<glyph unicode="l" horiz-adv-x="577" d="M182 0v1413q0 49 30 72.5t83 23.5q35 0 62.5 -8t37.5 -12v-1489h-213z" />
<glyph unicode="m" horiz-adv-x="1968" d="M168 0v971q8 4 42 18.5t90 30.5t134 28.5t174 12.5q131 0 234.5 -46t165.5 -145q53 86 147 138.5t223 52.5q88 0 166 -24.5t135.5 -73t90 -121t32.5 -170.5v-672h-213v600q0 147 -63.5 215t-179.5 68q-115 0 -187 -75t-72 -235v-573h-210v582q0 158 -72 229.5t-201 71.5 q-100 0 -155.5 -18.5t-69.5 -26.5v-838h-211z" />
<glyph unicode="n" horiz-adv-x="1296" d="M168 0v971q8 4 45 18.5t98.5 30.5t143.5 28.5t180 12.5q113 0 205 -30t156.5 -85t99 -133t34.5 -176v-637h-210v578q0 150 -72 227.5t-225 77.5q-104 0 -166 -19.5t-78 -27.5v-836h-211z" />
<glyph unicode="o" horiz-adv-x="1320" d="M115 514q0 117 40 217t111.5 173t173 115t222.5 42t221 -42t171.5 -115t111.5 -173t40 -217t-40 -217t-111.5 -173t-172 -115t-220.5 -42q-121 0 -222.5 42t-173 115t-111.5 173t-40 217zM334 514q0 -82 22.5 -150.5t64.5 -118.5t102.5 -78t138.5 -28q76 0 136 28t102 78 t64.5 118.5t22.5 150.5t-22.5 150.5t-64.5 119t-102.5 78t-135.5 27.5q-78 0 -138.5 -27.5t-102.5 -78t-64.5 -119t-22.5 -150.5z" />
<glyph unicode="p" horiz-adv-x="1308" d="M168 -410v1379q8 4 43 19.5t92 31.5t133 28.5t168 12.5q143 0 254 -42t185.5 -117t112.5 -179.5t38 -226.5q0 -125 -37 -220.5t-101.5 -160t-152.5 -97t-190 -32.5q-84 0 -144.5 17t-100.5 40t-61.5 43t-27.5 29v-525h-211zM379 342q10 -25 29.5 -55.5t53.5 -58t85 -47 t129 -19.5q141 0 219 90t78 258q0 80 -22.5 149.5t-67.5 119.5t-114 80t-163 30q-102 0 -157.5 -18.5t-69.5 -24.5v-504z" />
<glyph unicode="q" horiz-adv-x="1312" d="M115 496q0 125 39 228t113.5 178t186 117t257.5 42q90 0 165.5 -12.5t132 -28.5t91.5 -31.5t45 -19.5v-1379h-213v547q-8 -12 -30.5 -38.5t-63.5 -53.5t-101.5 -47.5t-144.5 -20.5q-102 0 -189.5 34t-152 100.5t-100 163t-35.5 221.5zM336 508q0 -168 75.5 -261 t217.5 -93q76 0 133 25.5t95 70.5t56.5 106.5t18.5 132.5v357q-12 6 -68.5 24.5t-158.5 18.5q-188 0 -278.5 -103.5t-90.5 -277.5z" />
<glyph unicode="r" horiz-adv-x="868" d="M168 0v936q6 6 38 25.5t86 41t128 39t166 17.5q82 0 134 -10.5t83 -26.5q57 -29 57 -84q0 -39 -16.5 -65.5t-28.5 -36.5q-20 14 -79.5 30.5t-133.5 16.5q-51 0 -90 -7.5t-66.5 -16.5t-44 -18.5t-22.5 -13.5v-827h-211z" />
<glyph unicode="s" horiz-adv-x="1167" d="M100 98l84 148q8 -6 40 -23.5t83 -37t121 -34t156 -14.5q117 0 180 32t63 105q0 59 -46 91t-167 49l-141 20q-172 25 -266 95.5t-94 207.5q0 63 22.5 120.5t74.5 102t137 71t210 26.5q141 0 225 -22.5t125 -43.5q84 -43 84 -104q0 -41 -22.5 -66.5t-44.5 -40.5 q-4 4 -28 23.5t-67 40t-108.5 37t-153.5 16.5q-133 0 -188 -37t-55 -104q0 -55 47 -84t141 -43l176 -25q197 -29 280 -103.5t83 -195.5q0 -147 -115 -240.5t-350 -93.5q-109 0 -196 17.5t-148.5 39t-97 43t-44.5 27.5z" />
<glyph unicode="t" horiz-adv-x="847" d="M35 940q0 33 10 56.5t14 31.5h168v223q0 49 30 73t83 24q35 0 62.5 -8.5t37.5 -12.5v-299h262q96 0 97 -88q0 -33 -9.5 -56.5t-13.5 -31.5h-336v-528q0 -102 45 -140.5t123 -38.5q33 0 61.5 7.5t51 17.5t37 19.5t20.5 13.5l82 -131q-8 -6 -30.5 -23.5t-59.5 -34t-89 -30 t-118 -13.5q-88 0 -151.5 24.5t-104.5 69t-60.5 103.5t-19.5 129v555h-94q-98 0 -98 88z" />
<glyph unicode="u" horiz-adv-x="1277" d="M166 436v496q0 49 28.5 72.5t81.5 23.5q35 0 63 -8t38 -12v-549q0 -156 79 -234t267 -78q72 0 116 5.5t60 9.5v770q0 49 28.5 72.5t82.5 23.5q35 0 62.5 -8t37.5 -12v-1008q-14 -4 -50 -8t-87 -9.5t-112.5 -8.5t-125.5 -3q-186 0 -302 45t-183 131q-84 109 -84 289z" />
<glyph unicode="v" horiz-adv-x="1128" d="M14 930q0 37 24.5 67.5t84.5 30.5q41 0 63.5 -8t24.5 -10q35 -96 81 -211t94 -226.5t93 -213t80 -171.5q25 47 65 134.5t84 191.5t89 215t80 203q16 45 40.5 70.5t81.5 25.5q49 0 79 -18.5t34 -26.5q-12 -45 -42 -120t-68.5 -167t-85 -193.5t-92.5 -196.5t-88 -178 t-72 -138h-220q-37 66 -76.5 144.5t-79.5 159.5t-77 161t-68.5 148.5t-55.5 121.5t-36 82t-24.5 61.5t-12.5 61.5z" />
<glyph unicode="w" horiz-adv-x="1662" d="M25 928q0 41 24.5 70.5t85.5 29.5q41 0 64.5 -8t27.5 -10q29 -109 64 -223.5t68.5 -222t64.5 -200t53 -155.5q41 123 93.5 295t121.5 418q16 59 47 82.5t88 23.5q43 0 69 -9t34 -15q31 -109 63.5 -223.5t65.5 -220t61.5 -197t48.5 -154.5q25 66 56.5 163t64.5 201.5 t63.5 200.5t49.5 162q14 45 39.5 68.5t83.5 23.5q47 0 76.5 -17.5t33.5 -21.5q-16 -68 -55 -187.5t-90 -259t-107.5 -282.5t-105.5 -260h-227q-16 45 -48 141.5t-67 206t-68.5 216t-52.5 175.5q-18 -74 -50 -181t-66.5 -217t-65.5 -204t-47 -137h-226q-49 119 -100 253 t-94 249.5t-74 199t-37 103.5q-10 29 -20 61.5t-10 61.5z" />
<glyph unicode="x" horiz-adv-x="1122" d="M18 0q20 29 61.5 81t96.5 119.5t118.5 144.5t127.5 155q-51 57 -100.5 110.5t-90.5 97.5t-70.5 76.5t-43.5 49.5q-20 23 -37 49t-17 55q0 35 23 62.5t74 27.5q39 0 58.5 -7t27.5 -11q12 -14 40.5 -48t68.5 -80t89.5 -103.5t104.5 -121.5q45 55 84 104.5t70.5 89.5 t53 66.5t29.5 36.5q25 29 52.5 51.5t81.5 22.5q53 0 85 -21.5t42 -35.5q-6 -8 -40 -48t-86.5 -101.5t-119 -140.5t-135.5 -163q70 -78 138 -158.5t127.5 -152.5t103.5 -126t63 -81h-256q-41 55 -122 152.5t-179 212.5q-86 -102 -160 -199.5t-123 -165.5h-240z" />
<glyph unicode="y" horiz-adv-x="1116" d="M-51 -352l69 155q10 -8 52.5 -24.5t95.5 -16.5q41 0 73.5 12.5t63.5 39t59.5 69.5t61.5 103l53 102q-27 43 -66.5 110.5t-84.5 142.5t-90.5 152.5t-84 144.5t-66.5 116t-36 65q-14 29 -24.5 54.5t-10.5 54.5q0 39 23.5 69.5t83.5 30.5q43 0 63.5 -8t24.5 -10 q10 -23 52 -105t97.5 -188.5t117 -219t110.5 -198.5q35 72 74.5 159t76.5 174t70 167t55 135q16 41 42 67.5t83 26.5q47 0 77 -18.5t36 -26.5q-14 -47 -39 -109.5t-53.5 -132t-61.5 -143.5t-65 -143q-66 -145 -136.5 -283.5t-150.5 -275.5q-43 -74 -85 -131.5t-91 -95.5 t-107.5 -58.5t-132.5 -20.5q-51 0 -92 8.5t-70.5 18.5t-47 19.5t-19.5 11.5z" />
<glyph unicode="z" horiz-adv-x="1107" d="M59 0v184q29 25 83.5 76t122 115.5t141 136.5t141 137.5t121 119.5t82.5 83h-594q-96 0 -97 88q0 33 10.5 56.5t14.5 31.5h829q115 0 115 -102q0 -35 -18.5 -69t-73.5 -93q-29 -31 -79 -81t-110.5 -109.5t-125 -122t-123 -117.5t-103.5 -97t-65 -61h700v-176h-971z" />
<glyph unicode="{" horiz-adv-x="790" d="M66 518v199h10q47 0 87 11t68.5 37t45 66.5t16.5 102.5v264q0 43 6 84q12 113 86 170t197 57h39q41 0 71.5 -20.5t30.5 -73.5q0 -31 -11.5 -58.5t-17.5 -37.5h-43q-82 0 -113.5 -40t-31.5 -110v-260q0 -74 -14.5 -123t-39 -80.5t-57.5 -51t-69 -33.5q37 -16 69.5 -35 t57 -50.5t39 -80.5t14.5 -123v-264q0 -66 27.5 -107t117.5 -41h72v-190h-141q-78 0 -133.5 21.5t-90 60t-50 94t-15.5 125.5v272q0 61 -16.5 102t-45 66t-68.5 36t-87 11h-10z" />
<glyph unicode="|" horiz-adv-x="587" d="M188 -270v1683q0 49 30 72.5t83 23.5q35 0 62.5 -8t37.5 -12v-1759h-213z" />
<glyph unicode="}" horiz-adv-x="790" d="M68 -80h71q90 0 118 41t28 107v264q0 74 14 123t38.5 80.5t57.5 50t70 35.5q-37 14 -70 33.5t-57.5 51t-38.5 81t-14 122.5v260q0 70 -32 110t-114 40h-43q-6 10 -17 37.5t-11 58.5q0 53 30.5 73.5t71.5 20.5h39q123 0 196.5 -57t86.5 -170q6 -41 6 -84v-264 q0 -121 60 -169t157 -48h10v-199h-10q-96 0 -156.5 -47t-60.5 -168v-272q0 -139 -66.5 -220t-222.5 -81h-141v190z" />
<glyph unicode="~" horiz-adv-x="1280" d="M84 528q8 162 80 253t219 91q53 0 107.5 -13t97.5 -30l131 -51q53 -23 88 -31t82 -8q70 0 96.5 42t32.5 93h162q-6 -156 -77 -250t-214 -94q-59 0 -117.5 16.5t-109.5 35.5l-121 45q-39 14 -81 26.5t-85 12.5q-33 0 -55.5 -12.5t-37 -32t-22.5 -44t-10 -49.5h-166z" />
<glyph unicode="&#xa1;" horiz-adv-x="522" d="M111 1257q0 61 43 105.5t106 44.5q61 0 105.5 -44t44.5 -106q0 -61 -44 -105t-106 -44q-63 0 -106 44t-43 105zM154 -10v938h213v-860q0 -100 -111 -101q-35 0 -63.5 8.5t-38.5 14.5z" />
<glyph unicode="&#xa2;" d="M225 698q0 115 34 208t94.5 162t143.5 112t179 57v193q0 66 78 65q25 0 45 -5t24 -7v-240q113 -6 172.5 -31.5t81.5 -42.5q20 -16 34.5 -37.5t14.5 -52.5q0 -25 -16 -58.5t-49 -57.5q-23 23 -81 59.5t-157 44.5v-731q86 6 143.5 33.5t73.5 40.5q23 -37 45.5 -74t44.5 -72 q-35 -25 -110.5 -58.5t-196.5 -43.5v-236h-147v238q-98 12 -180 54t-142.5 109.5t-94.5 161t-34 209.5zM444 702q0 -154 64.5 -239.5t167.5 -114.5v707q-104 -29 -168 -117.5t-64 -235.5z" />
<glyph unicode="&#xa3;" d="M195 0l43 893q10 242 149 381t393 139q92 0 159 -12t112 -28.5t70.5 -34t37.5 -25.5q55 -43 55 -101q0 -41 -23.5 -72.5t-51.5 -45.5q-12 16 -38 40.5t-69 48t-101.5 40t-133.5 16.5q-96 0 -161 -28.5t-104.5 -79t-59 -116t-23.5 -138.5l-5 -91h484q98 0 98 -88 q0 -35 -11 -59.5t-16 -30.5h-563l-18 -418h788v-190h-1011z" />
<glyph unicode="&#xa4;" horiz-adv-x="1263" d="M111 303l133 135q-41 59 -62.5 125t-21.5 139q0 74 21.5 139.5t62.5 125.5l-133 135l135 137l133 -137q57 35 120.5 54.5t133.5 19.5q137 0 254 -76l133 139l133 -137l-133 -135q41 -59 62.5 -125t21.5 -140q0 -72 -21.5 -138t-62.5 -126l133 -135l-133 -137l-131 137 q-59 -35 -121.5 -54.5t-134.5 -19.5q-70 0 -133.5 19.5t-122.5 54.5l-131 -137l-30.5 30.5t-37 38t-37 38zM334 702q0 -63 23.5 -118.5t63.5 -96.5t94 -64.5t118 -23.5q61 0 115.5 23.5t94.5 64.5t63.5 96.5t23.5 118.5t-23.5 119t-63.5 96.5t-94.5 64.5t-115.5 24 q-63 0 -117.5 -24t-94.5 -64.5t-63.5 -96t-23.5 -119.5z" />
<glyph unicode="&#xa5;" horiz-adv-x="1323" d="M39 1290q0 39 24.5 67.5t77.5 28.5q41 0 64.5 -11t30.5 -15q29 -43 76.5 -120t104 -167t120 -184t122.5 -170q33 47 71 109.5t79 129t83 135t79 128.5q20 31 39.5 60.5t43 52t52.5 35.5t65 13q49 0 80 -18t35 -25q-59 -94 -140 -228t-179 -294h129q86 0 86 -78 q0 -29 -8.5 -50t-12.5 -27h-295q-29 -47 -54.5 -87t-43.5 -75h328q86 0 86 -78q0 -29 -8.5 -50.5t-12.5 -27.5h-395v-344h-227v344h-334q-86 0 -86 78q0 29 9 50.5t13 27.5h396q-20 35 -46 74.5t-59 87.5h-227q-86 0 -86 77q0 29 9 50.5t13 27.5h185q-27 37 -48.5 67.5 t-41 59.5t-40 57.5t-42.5 61.5q-43 59 -79 116.5t-36 110.5z" />
<glyph unicode="&#xa6;" horiz-adv-x="587" d="M188 -270v592h213v-592h-213zM188 913v500q0 49 30 72.5t83 23.5q35 0 62.5 -8t37.5 -12v-576h-213z" />
<glyph unicode="&#xa7;" horiz-adv-x="1300" d="M102 -276l86 159q14 -8 53.5 -26.5t98.5 -38t138 -34.5t175 -15q66 0 121 11t96 34.5t64.5 60.5t23.5 86q0 78 -55 127t-188 68l-215 30q-178 27 -287 114t-109 232q0 96 48.5 172t144.5 123q-49 25 -86 59t-60.5 74.5t-35 86t-11.5 88.5q0 70 26 137t86 119.5t159.5 85 t245.5 32.5q147 0 254.5 -24.5t164.5 -57.5q72 -39 72 -100q0 -45 -23.5 -71.5t-41.5 -36.5q-14 10 -49 30.5t-87.5 40t-123 33.5t-156.5 14q-141 0 -219 -49t-78 -145q0 -147 211 -178q59 -8 120.5 -15.5t120.5 -17.5q217 -31 309.5 -119t92.5 -215q0 -59 -20.5 -110.5 t-50.5 -91.5t-65.5 -68.5t-66.5 -40.5q94 -47 148.5 -120t54.5 -183q0 -86 -33 -158t-98.5 -124t-164.5 -82t-233 -30q-123 0 -221 17.5t-168.5 41t-113.5 45t-54 30.5zM319 563q0 -70 52.5 -126t156.5 -75q45 -8 90 -15t113 -7q49 0 92 15.5t76 43t52.5 66.5t19.5 86 q0 72 -47 127t-176 78q-45 10 -86 12q-49 6 -107 6q-100 0 -168 -59.5t-68 -151.5z" />
<glyph unicode="&#xa8;" horiz-adv-x="1024" d="M184 1296q0 47 39 84t88 37q53 0 90 -37t37 -84t-37 -84.5t-90 -37.5q-49 0 -88 37.5t-39 84.5zM586 1296q0 47 38 84t89 37q53 0 90 -37t37 -84t-37 -84.5t-90 -37.5q-51 0 -89 37.5t-38 84.5z" />
<glyph unicode="&#xa9;" horiz-adv-x="1656" d="M88 702q0 154 58.5 288t159 234.5t234.5 159t287 58.5q154 0 288 -58.5t234.5 -159t159 -234.5t58.5 -288t-58.5 -287.5t-159 -234t-234.5 -159t-288 -58.5t-287.5 58.5t-234 159t-159 234t-58.5 287.5zM254 702q0 -125 45 -233.5t122 -188t181.5 -125.5t224.5 -46 q121 0 225.5 46t182.5 125.5t123 188.5t45 233q0 125 -45 233.5t-123 188.5t-182.5 126t-225.5 46t-225 -46t-181 -126t-122 -188.5t-45 -233.5zM426 700q0 100 35 179t93 134.5t136 84t166 28.5q82 0 147.5 -21.5t98.5 -45.5q33 -25 33 -62q0 -31 -19.5 -55t-38.5 -35 q-27 27 -84 53.5t-129 26.5q-117 0 -192.5 -76.5t-75.5 -210.5q0 -135 80 -208.5t201 -73.5q66 0 118 18.5t80 36.5l66 -121q-33 -23 -102.5 -49.5t-180.5 -26.5q-86 0 -165 29t-138 82t-94 132t-35 181z" />
<glyph unicode="&#xaa;" horiz-adv-x="860" d="M51 901q0 55 16.5 101.5t58.5 78t111.5 49t174.5 17.5q45 0 94 -4t82 -8q0 47 -17.5 78.5t-46 52t-68.5 29t-83 8.5q-41 0 -75 -7.5t-59.5 -17.5t-43 -19.5t-23.5 -15.5q-10 6 -29.5 30.5t-19.5 49.5q0 29 13.5 44t29.5 28q16 14 67.5 30.5t139.5 16.5q186 0 286.5 -77 t100.5 -243v-446q-51 -6 -139.5 -16.5t-188.5 -10.5q-123 0 -198.5 22.5t-115.5 58.5t-53.5 81t-13.5 90zM223 901q0 -57 49 -87t166 -30q61 0 97 3.5t53 7.5v215q-16 4 -61.5 8t-114.5 4q-88 0 -138.5 -26.5t-50.5 -94.5z" />
<glyph unicode="&#xab;" horiz-adv-x="1159" d="M72 510q0 25 9 45t21 35l340 371l133 -119l-284 -328l284 -324l-131 -118l-329 342q-16 16 -29.5 42.5t-13.5 53.5zM582 510q0 25 9 45t21 35l340 371l133 -119l-284 -328l284 -324l-131 -118l-329 342q-16 16 -29.5 42.5t-13.5 53.5z" />
<glyph unicode="&#xac;" horiz-adv-x="1296" d="M102 881q0 35 8.5 58.5t12.5 33.5h940q59 0 83.5 -30t24.5 -83v-459h-194v385h-768q-59 0 -83 24t-24 71z" />
<glyph unicode="&#xad;" horiz-adv-x="741" d="M109 561q0 35 9 60.5t13 40.5h391q61 0 86 -31t25 -78q0 -35 -9.5 -60.5t-13.5 -39.5h-391q-61 0 -85.5 30.5t-24.5 77.5z" />
<glyph unicode="&#xae;" horiz-adv-x="1656" d="M88 702q0 154 58.5 288t159 234.5t234.5 159t287 58.5q154 0 288 -58.5t234.5 -159t159 -234.5t58.5 -288t-58.5 -287.5t-159 -234t-234.5 -159t-288 -58.5t-287.5 58.5t-234 159t-159 234t-58.5 287.5zM252 702q0 -125 45 -233.5t123 -189t182.5 -127t224.5 -46.5 q121 0 225.5 46.5t182.5 127t123 189.5t45 233q0 125 -45 233.5t-123 188.5t-182.5 126t-225.5 46t-225 -46t-182 -126t-123 -188.5t-45 -233.5zM502 307v731q0 76 110 88q55 6 144 7q176 0 282.5 -61t106.5 -204q0 -82 -40 -139t-108 -88q49 -72 97.5 -164t83.5 -170h-172 q-10 23 -30 64t-41.5 85t-44 85t-38.5 63q-10 -2 -40 -3t-58 -1q-29 0 -58.5 1t-48.5 5v-299h-145zM647 727q37 -6 133 -6q117 0 164 42t47 103q0 29 -10 55.5t-34.5 46t-66.5 32t-106 12.5q-51 0 -80.5 -1t-46.5 -3v-281z" />
<glyph unicode="&#xaf;" horiz-adv-x="1024" d="M188 1303q0 27 6.5 45t10.5 26h555q45 0 61.5 -21.5t16.5 -56.5q0 -27 -6.5 -47t-10.5 -26h-555q-43 0 -60.5 21.5t-17.5 58.5z" />
<glyph unicode="&#xb0;" horiz-adv-x="837" d="M43 1141q0 78 29.5 145.5t80 116.5t119 77.5t146.5 28.5t146.5 -28.5t118.5 -77.5t80 -116.5t30 -145.5t-30 -144.5t-80 -116t-118.5 -78t-146.5 -28.5t-146.5 28.5t-119 78t-80 116t-29.5 144.5zM207 1141q0 -43 16.5 -82t46 -67.5t67.5 -46t81 -17.5q45 0 84 17.5 t67.5 46t46 67.5t17.5 82q0 45 -17.5 84t-46 68.5t-67.5 47t-84 17.5q-43 0 -81 -17.5t-67.5 -47t-46 -68.5t-16.5 -84z" />
<glyph unicode="&#xb1;" horiz-adv-x="1320" d="M154 94q0 35 10 61.5t14 34.5h389v404h-311q-102 0 -102 94q0 35 10 61.5t14 34.5h389v324q0 92 105 92q33 0 59.5 -7t34.5 -11v-398h313q102 0 103 -96q0 -35 -10.5 -60.5t-14.5 -33.5h-391v-404h313q102 0 103 -96q0 -35 -10.5 -60.5t-14.5 -33.5h-901q-102 0 -102 94z " />
<glyph unicode="&#xb2;" horiz-adv-x="995" d="M119 612v136q20 12 63 39.5t93.5 61.5t101.5 69.5t88 66.5q29 25 56.5 51.5t50 55t37 61.5t14.5 68q0 57 -44 100t-137 43q-49 0 -87 -15.5t-65.5 -37t-45 -42t-23.5 -32.5q-31 6 -63.5 26.5t-32.5 63.5q0 33 22 64q6 10 29 29.5t61.5 40t92 34.5t121.5 14 q174 0 269 -72.5t95 -201.5q0 -82 -36 -147.5t-95 -121t-136 -104.5t-161 -98h440v-152h-708z" />
<glyph unicode="&#xb3;" horiz-adv-x="995" d="M94 670l58 133q37 -16 114.5 -41t179.5 -25q199 0 199 127q0 57 -51 89t-156 32h-84q-6 4 -16 26.5t-10 51.5q0 68 86 67h26q190 0 191 121q0 51 -45 83t-144 32q-53 0 -93 -11.5t-69.5 -26.5t-48 -31.5t-26.5 -26.5q-29 6 -56.5 24.5t-27.5 53.5q0 41 33 73 q10 10 32.5 25.5t59.5 29t89 23.5t124 10q102 0 172.5 -22.5t115 -56t63.5 -76.5t19 -82q0 -139 -147 -209q94 -35 128 -91.5t34 -123.5q0 -53 -24.5 -100.5t-72 -82t-117 -55t-159.5 -20.5q-137 0 -236.5 29.5t-140.5 50.5z" />
<glyph unicode="&#xb4;" horiz-adv-x="1024" d="M301 1262l211 170q29 23 49.5 32t46.5 9q33 0 55.5 -14.5t37 -34t20.5 -39t6 -27.5l-354 -199z" />
<glyph unicode="&#xb5;" horiz-adv-x="1277" d="M166 -412v1344q0 49 28.5 72.5t81.5 23.5q35 0 63 -8t38 -12v-566q0 -147 81 -221t265 -74q72 0 116 5.5t60 9.5v770q0 49 28.5 72.5t82.5 23.5q35 0 62.5 -8t37.5 -12v-1008q-14 -4 -49 -8t-84 -9.5t-108.5 -8.5t-123.5 -3q-264 0 -368 111v-494h-211z" />
<glyph unicode="&#xb6;" horiz-adv-x="1355" d="M94 952q0 104 39 191.5t120 150t204 97t288 34.5q147 0 230.5 -9t114.5 -13q43 -8 72.5 -34t29.5 -85v-1694h-168v1665q-33 4 -99.5 8.5t-131.5 4.5v-1678h-168v902q-143 10 -244.5 49t-165 99t-92.5 140t-29 172z" />
<glyph unicode="&#xb7;" horiz-adv-x="630" d="M162 692q0 66 45 111t110 45q63 0 107.5 -45t44.5 -111t-44 -109.5t-108 -43.5q-66 0 -110.5 44t-44.5 109z" />
<glyph unicode="&#xb8;" horiz-adv-x="1024" d="M283 -383l47 104q2 -2 16 -8t37 -12t49.5 -11t52.5 -5q47 0 71 14t24 51q0 20 -13.5 33.5t-32 21t-39 11.5t-34.5 4l37 108q39 -2 81 -12t77.5 -30.5t59 -52.5t23.5 -79q0 -86 -62.5 -135t-172.5 -49q-104 0 -160.5 21.5t-60.5 25.5z" />
<glyph unicode="&#xb9;" horiz-adv-x="995" d="M168 1260q0 51 61 90l177 108q39 25 67.5 38t69.5 13q35 0 60.5 -11t39.5 -21v-865h-184v693l-209 -136q-20 8 -51 31t-31 60z" />
<glyph unicode="&#xba;" horiz-adv-x="935" d="M68 1044q0 84 29.5 157t81.5 126t126 84t164 31q88 0 162 -31t127 -84t81.5 -126t28.5 -157q0 -82 -28.5 -153.5t-81.5 -125.5t-127 -85t-162 -31q-90 0 -164 31t-127 85t-81.5 126t-28.5 153zM252 1044q0 -49 15.5 -94t43 -78.5t68.5 -54t90 -20.5t89 19.5t68.5 53 t44 78.5t15.5 96q0 109 -59.5 180.5t-157.5 71.5q-100 0 -158.5 -72.5t-58.5 -179.5z" />
<glyph unicode="&#xbb;" horiz-adv-x="1159" d="M74 190l284 334l-284 318l133 119l328 -345q16 -16 29.5 -41.5t13.5 -52.5q0 -49 -31 -80l-342 -370zM584 190l286 334l-286 318l133 119l327 -345q16 -16 29.5 -41.5t13.5 -52.5q0 -49 -30 -80l-342 -370z" />
<glyph unicode="&#xbc;" horiz-adv-x="2037" d="M66 1260q0 51 61 90l177 108q39 25 67.5 38t69.5 13q35 0 60.5 -11t39.5 -21v-865h-184v693l-209 -136q-20 8 -51 31t-31 60zM367 0l831 1438q16 27 38 49t75 22q41 0 65.5 -18t34.5 -37l-841 -1454h-203zM1020 348q0 78 47 159t105 146q45 51 98 97.5t108.5 81t107.5 55 t95 20.5q49 0 76 -10t37 -16v-531h53q35 0 51.5 -18.5t16.5 -44.5q0 -25 -7 -45.5t-14 -30.5h-100v-201h-176v201h-299q-104 0 -151.5 32t-47.5 105zM1207 402q0 -33 23.5 -41.5t58.5 -8.5h229v385q-53 -25 -110.5 -67.5t-98.5 -89.5q-39 -41 -70.5 -90t-31.5 -88z" />
<glyph unicode="&#xbd;" horiz-adv-x="2037" d="M47 1260q0 51 61 90l177 108q39 25 67.5 38t69.5 13q35 0 60.5 -11t39.5 -21v-865h-184v693l-209 -136q-20 8 -51 31t-31 60zM348 0l831 1438q16 27 38 49t75 22q41 0 65.5 -18t34.5 -37l-841 -1454h-203zM1102 10v136q20 12 63 39.5t93.5 61.5t101.5 69.5t88 66.5 q29 25 56.5 51.5t50 55t37 61.5t14.5 68q0 57 -44 100t-137 43q-49 0 -87 -15.5t-65.5 -37t-45 -42t-23.5 -32.5q-31 6 -63.5 26.5t-32.5 63.5q0 33 22 64q6 10 29 29.5t61.5 40t92 34.5t121.5 14q174 0 269 -72.5t95 -201.5q0 -82 -36 -147.5t-95 -121t-136 -104.5 t-161 -98h440v-152h-708z" />
<glyph unicode="&#xbe;" horiz-adv-x="2037" d="M90 670l58 133q37 -16 114.5 -41t179.5 -25q199 0 199 127q0 57 -51 89t-156 32h-84q-6 4 -16 26.5t-10 51.5q0 68 86 67h26q190 0 191 121q0 51 -45 83t-144 32q-53 0 -93 -11.5t-69.5 -26.5t-48 -31.5t-26.5 -26.5q-29 6 -56.5 24.5t-27.5 53.5q0 41 33 73 q10 10 32.5 25.5t59.5 29t89 23.5t124 10q102 0 172.5 -22.5t115 -56t63.5 -76.5t19 -82q0 -139 -147 -209q94 -35 128 -91.5t34 -123.5q0 -53 -24.5 -100.5t-72 -82t-117 -55t-159.5 -20.5q-137 0 -236.5 29.5t-140.5 50.5zM498 0l831 1438q16 27 38 49t75 22 q41 0 65.5 -18t34.5 -37l-841 -1454h-203zM1151 348q0 78 47 159t105 146q45 51 98 97.5t108.5 81t107.5 55t95 20.5q49 0 76 -10t37 -16v-531h53q35 0 51.5 -18.5t16.5 -44.5q0 -25 -7 -45.5t-14 -30.5h-100v-201h-176v201h-299q-104 0 -151.5 32t-47.5 105zM1338 402 q0 -33 23.5 -41.5t58.5 -8.5h229v385q-53 -25 -110.5 -67.5t-98.5 -89.5q-39 -41 -70.5 -90t-31.5 -88z" />
<glyph unicode="&#xbf;" horiz-adv-x="1146" d="M129 356q0 72 17.5 128.5t46 100.5t65.5 78.5t76 63.5q25 20 47 35.5t43 30.5q70 45 96.5 83.5t30.5 106.5h211v-36.5t-4 -37.5q-4 -47 -18.5 -84t-39 -65.5t-58.5 -53t-73 -47.5q-106 -61 -163.5 -126.5t-57.5 -161.5q0 -47 16.5 -90t50.5 -75t88 -51.5t132 -19.5 q86 0 143.5 25.5t94 58.5t55 64.5t22.5 44.5q119 -16 119 -107q0 -31 -12.5 -56.5t-32.5 -49.5q-8 -10 -34.5 -35t-76 -49.5t-123 -43t-174.5 -18.5q-133 0 -225 33t-150.5 87t-85 124t-26.5 143zM508 1294q0 61 43 104.5t104 43.5t105.5 -43t44.5 -105q0 -63 -44 -106 t-106 -43q-61 0 -104 43t-43 106z" />
<glyph unicode="&#xc0;" horiz-adv-x="1509" d="M35 0q63 172 137 356.5t144.5 356.5t134 319.5t108.5 243.5q41 90 85 124t112 34q63 0 96 -20.5t49 -37.5q37 -63 88 -174.5t108.5 -246t116 -280t109.5 -277.5t91 -237.5t61 -160.5h-238q-10 23 -25.5 64.5t-34 92t-39 104.5t-38.5 104h-707q-47 -117 -82 -213.5 t-55 -151.5h-221zM467 553h559q-37 98 -79 201.5t-80 196.5t-68.5 166t-48.5 108q-23 -47 -54.5 -120t-69.5 -162t-79 -189.5t-80 -200.5zM469 1702q0 12 7.5 33.5t23.5 42t43 36t66 15.5q27 0 48 -7.5t52 -27.5l244 -162l-72 -113z" />
<glyph unicode="&#xc1;" horiz-adv-x="1509" d="M35 0q63 172 137 356.5t144.5 356.5t134 319.5t108.5 243.5q41 90 85 124t112 34q63 0 96 -20.5t49 -37.5q37 -63 88 -174.5t108.5 -246t116 -280t109.5 -277.5t91 -237.5t61 -160.5h-238q-10 23 -25.5 64.5t-34 92t-39 104.5t-38.5 104h-707q-47 -117 -82 -213.5 t-55 -151.5h-221zM467 553h559q-37 98 -79 201.5t-80 196.5t-68.5 166t-48.5 108q-23 -47 -54.5 -120t-69.5 -162t-79 -189.5t-80 -200.5zM564 1632l243 162q31 20 52.5 27.5t48.5 7.5q39 0 65.5 -15.5t43 -36t23.5 -42t7 -33.5l-412 -183z" />
<glyph unicode="&#xc2;" horiz-adv-x="1509" d="M35 0q63 172 137 356.5t144.5 356.5t134 319.5t108.5 243.5q41 90 85 124t112 34q63 0 96 -20.5t49 -37.5q37 -63 88 -174.5t108.5 -246t116 -280t109.5 -277.5t91 -237.5t61 -160.5h-238q-10 23 -25.5 64.5t-34 92t-39 104.5t-38.5 104h-707q-47 -117 -82 -213.5 t-55 -151.5h-221zM421 1605l199 158q35 29 64.5 47.5t70.5 18.5q37 0 70 -20.5t63 -45.5l199 -158l-84 -86l-248 140l-252 -140zM467 553h559q-37 98 -79 201.5t-80 196.5t-68.5 166t-48.5 108q-23 -47 -54.5 -120t-69.5 -162t-79 -189.5t-80 -200.5z" />
<glyph unicode="&#xc3;" horiz-adv-x="1509" d="M35 0q63 172 137 356.5t144.5 356.5t134 319.5t108.5 243.5q41 90 85 124t112 34q63 0 96 -20.5t49 -37.5q37 -63 88 -174.5t108.5 -246t116 -280t109.5 -277.5t91 -237.5t61 -160.5h-238q-10 23 -25.5 64.5t-34 92t-39 104.5t-38.5 104h-707q-47 -117 -82 -213.5 t-55 -151.5h-221zM400 1581q8 37 23.5 75t40 66.5t61 47t86.5 18.5q47 0 86 -9t73 -22l37 -12q18 -4 42 -11t46 -7q33 0 50.5 18t27.5 55l139 -24q-8 -39 -23.5 -76t-41 -66.5t-62 -47t-86.5 -17.5q-43 0 -78.5 9t-70.5 20l-49 14q-23 8 -43.5 13t-42.5 5q-31 0 -48.5 -18.5 t-27.5 -56.5zM467 553h559q-37 98 -79 201.5t-80 196.5t-68.5 166t-48.5 108q-23 -47 -54.5 -120t-69.5 -162t-79 -189.5t-80 -200.5z" />
<glyph unicode="&#xc4;" horiz-adv-x="1509" d="M35 0q63 172 137 356.5t144.5 356.5t134 319.5t108.5 243.5q41 90 85 124t112 34q63 0 96 -20.5t49 -37.5q37 -63 88 -174.5t108.5 -246t116 -280t109.5 -277.5t91 -237.5t61 -160.5h-238q-10 23 -25.5 64.5t-34 92t-39 104.5t-38.5 104h-707q-47 -117 -82 -213.5 t-55 -151.5h-221zM410 1655q0 25 10 47t28.5 39.5t42 27.5t48.5 10q53 0 92 -38.5t39 -85.5q0 -23 -10.5 -45.5t-29 -40t-41.5 -28.5t-50 -11q-51 0 -90 38.5t-39 86.5zM467 553h559q-37 98 -79 201.5t-80 196.5t-68.5 166t-48.5 108q-23 -47 -54.5 -120t-69.5 -162 t-79 -189.5t-80 -200.5zM836 1655q0 25 10 47t28.5 39.5t42 27.5t50.5 10q53 0 92 -38.5t39 -85.5q0 -23 -10.5 -45.5t-29 -40t-41.5 -28.5t-50 -11q-53 0 -92 38.5t-39 86.5z" />
<glyph unicode="&#xc5;" horiz-adv-x="1509" d="M35 0q63 170 136 354.5t143.5 356.5t135 319.5t109.5 245.5q35 76 68 108q-39 27 -61.5 70t-22.5 92q0 43 16 80t45 65.5t68 45t82 16.5t81.5 -16.5t67.5 -45t45.5 -65.5t16.5 -80q0 -47 -21.5 -89t-58.5 -71q8 -4 16 -10q37 -63 88 -174.5t108.5 -246t116 -280 t109.5 -277.5t91 -237.5t59 -160.5h-236q-10 23 -25.5 64.5t-34 92t-39 104.5t-38.5 104h-707q-47 -117 -83 -213.5t-56 -151.5h-219zM467 551h559q-37 98 -79 202.5t-80 197.5t-69.5 166t-49.5 108q-23 -47 -54.5 -120t-68.5 -162t-78 -190.5t-80 -201.5zM655 1546 q0 -43 28 -72.5t71 -29.5q47 0 73.5 29.5t26.5 72.5q0 47 -26.5 76t-73.5 29q-43 0 -71 -29t-28 -76z" />
<glyph unicode="&#xc6;" horiz-adv-x="2193" d="M25 0q123 215 244.5 420t227 375t186.5 296t122 183q49 72 96 102.5t115 30.5h926q102 0 102 -96q0 -35 -10.5 -61.5t-16.5 -37.5h-671v-397h567q102 0 102 -96q0 -35 -10 -61.5t-16 -36.5h-643v-428h688v-193h-914v399h-635q-72 -119 -133 -223t-100 -176h-227zM596 590 h524v622h-129q-20 -27 -60 -89t-94.5 -146t-116 -184.5t-124.5 -202.5z" />
<glyph unicode="&#xc7;" horiz-adv-x="1402" d="M115 700q0 172 56 310.5t154.5 233.5t231.5 146.5t285 51.5q158 0 262 -37t145 -68q35 -27 50.5 -53t15.5 -51t-10.5 -46.5t-23.5 -39t-28.5 -29.5t-25.5 -18q-18 20 -51 47t-82.5 50.5t-112.5 39.5t-139 16q-109 0 -200 -38.5t-157.5 -110.5t-103.5 -173.5t-37 -228.5 q0 -133 39 -234t106.5 -170t160.5 -104.5t204 -35.5q76 0 139.5 13t110.5 30.5t78.5 35t48.5 27.5l96 -166q-16 -12 -57 -34.5t-103.5 -44t-145.5 -38t-181 -16.5q-152 0 -284 48t-230.5 142.5t-154.5 230.5t-56 314zM497 -385l50 111q2 -2 17 -8.5t37.5 -13.5t49.5 -12 t53 -5q43 0 65.5 13t22.5 48q0 18 -13 30.5t-31.5 19.5t-39 10.5t-34.5 3.5l39 116q39 -2 82.5 -12t80.5 -30.5t60.5 -53.5t23.5 -80q0 -88 -63.5 -138t-173.5 -50q-53 0 -94 7t-70 16.5t-44 17.5t-18 10z" />
<glyph unicode="&#xc8;" horiz-adv-x="1275" d="M188 0v1284q0 59 32 91t97 32h707q102 0 102 -96q0 -35 -10 -61.5t-16 -37.5h-690v-397h585q102 0 103 -96q0 -35 -10.5 -61.5t-16.5 -36.5h-661v-428h706v-193h-928zM415 1702q0 12 7.5 33.5t23.5 42t43 36t66 15.5q27 0 48 -7.5t52 -27.5l244 -162l-72 -113z" />
<glyph unicode="&#xc9;" horiz-adv-x="1275" d="M188 0v1284q0 59 32 91t97 32h707q102 0 102 -96q0 -35 -10 -61.5t-16 -37.5h-690v-397h585q102 0 103 -96q0 -35 -10.5 -61.5t-16.5 -36.5h-661v-428h706v-193h-928zM461 1632l243 162q31 20 52.5 27.5t48.5 7.5q39 0 65.5 -15.5t43 -36t23.5 -42t7 -33.5l-412 -183z " />
<glyph unicode="&#xca;" horiz-adv-x="1275" d="M188 0v1284q0 59 32 91t97 32h707q102 0 102 -96q0 -35 -10 -61.5t-16 -37.5h-690v-397h585q102 0 103 -96q0 -35 -10.5 -61.5t-16.5 -36.5h-661v-428h706v-193h-928zM358 1605l199 158q35 29 64.5 47.5t70.5 18.5q37 0 70 -20.5t63 -45.5l199 -158l-84 -86l-248 140 l-252 -140z" />
<glyph unicode="&#xcb;" horiz-adv-x="1275" d="M188 0v1284q0 59 32 91t97 32h707q102 0 102 -96q0 -35 -10 -61.5t-16 -37.5h-690v-397h585q102 0 103 -96q0 -35 -10.5 -61.5t-16.5 -36.5h-661v-428h706v-193h-928zM359 1655q0 25 10 47t28.5 39.5t42 27.5t48.5 10q53 0 92 -38.5t39 -85.5q0 -23 -10.5 -45.5t-29 -40 t-41.5 -28.5t-50 -11q-51 0 -90 38.5t-39 86.5zM785 1655q0 25 10 47t28.5 39.5t42 27.5t50.5 10q53 0 92 -38.5t39 -85.5q0 -23 -10.5 -45.5t-29 -40t-41.5 -28.5t-50 -11q-53 0 -92 38.5t-39 86.5z" />
<glyph unicode="&#xcc;" horiz-adv-x="598" d="M84 1702q0 12 7.5 33.5t23.5 42t43 36t66 15.5q27 0 48 -7.5t52 -27.5l244 -162l-72 -113zM188 0v1303q0 53 31 78.5t86 25.5q35 0 64.5 -9t40.5 -16v-1382h-222z" />
<glyph unicode="&#xcd;" horiz-adv-x="598" d="M56 1632l243 162q31 20 52.5 27.5t48.5 7.5q39 0 65.5 -15.5t43 -36t23.5 -42t7 -33.5l-412 -183zM188 0v1303q0 53 31 78.5t86 25.5q35 0 64.5 -9t40.5 -16v-1382h-222z" />
<glyph unicode="&#xce;" horiz-adv-x="598" d="M-23 1605l199 158q35 29 64.5 47.5t70.5 18.5q37 0 70 -20.5t63 -45.5l199 -158l-84 -86l-248 140l-252 -140zM188 0v1303q0 53 31 78.5t86 25.5q35 0 64.5 -9t40.5 -16v-1382h-222z" />
<glyph unicode="&#xcf;" horiz-adv-x="598" d="M-34 1655q0 25 10 47t28.5 39.5t42 27.5t48.5 10q53 0 92 -38.5t39 -85.5q0 -23 -10.5 -45.5t-29 -40t-41.5 -28.5t-50 -11q-51 0 -90 38.5t-39 86.5zM188 0v1303q0 53 31 78.5t86 25.5q35 0 64.5 -9t40.5 -16v-1382h-222zM392 1655q0 25 10 47t28.5 39.5t42 27.5 t50.5 10q53 0 92 -38.5t39 -85.5q0 -23 -10.5 -45.5t-29 -40t-41.5 -28.5t-50 -11q-53 0 -92 38.5t-39 86.5z" />
<glyph unicode="&#xd0;" horiz-adv-x="1624" d="M72 725q0 31 8 53.5t12 32.5h164v473q0 59 33 91t98 32h365q172 0 310 -50t235.5 -141.5t148.5 -221.5t51 -289q0 -160 -51 -290t-148.5 -222.5t-235.5 -142.5t-310 -50h-496v625h-90q-51 0 -72.5 26.5t-21.5 73.5zM477 184h262q129 0 227.5 39t165 108.5t101.5 165 t35 208.5t-35 208t-101.5 164.5t-165 107.5t-227.5 38h-262v-412h285q53 0 73.5 -26.5t20.5 -71.5q0 -33 -8 -55.5t-12 -32.5h-359v-441z" />
<glyph unicode="&#xd1;" horiz-adv-x="1558" d="M188 0v1290q0 43 35 80t105 37q53 0 87 -17.5t52 -29.5q20 -27 65.5 -89.5t102.5 -146.5t124.5 -185t137.5 -206.5t135.5 -208t118.5 -188.5v967q0 53 30.5 78.5t84.5 25.5q37 0 65.5 -9t38.5 -16v-1382h-231q-51 78 -113.5 175t-130.5 202.5t-137.5 212t-134 203 t-121 177.5t-96.5 136v-1106h-218zM459 1558q8 39 22.5 77t40 68.5t62.5 49t88 18.5q47 0 87 -9t75 -21l53 -19q16 -4 33.5 -8t34.5 -4q31 0 47 18.5t26 55.5l148 -25q-8 -41 -23.5 -79t-42 -67.5t-63.5 -48t-88 -18.5q-45 0 -81 9t-69 20l-53 16q-18 6 -37.5 11t-42.5 5 q-29 0 -45 -18t-27 -57z" />
<glyph unicode="&#xd2;" horiz-adv-x="1697" d="M127 705q0 158 53 293t148.5 233t227.5 154.5t292 56.5t293 -56.5t228 -154.5t148.5 -233t53.5 -293t-53.5 -293.5t-148.5 -234.5t-228 -155.5t-293 -56.5t-292 56.5t-227.5 155.5t-148.5 234.5t-53 293.5zM358 705q0 -119 35 -220.5t99.5 -175t155.5 -115.5t202 -42 t201 42t154.5 115.5t99 175t34.5 220.5t-34.5 219t-99 173.5t-154.5 114.5t-201 41t-202 -41t-155.5 -114.5t-99.5 -174t-35 -218.5zM602 1702q0 12 7.5 33.5t23.5 42t43 36t66 15.5q27 0 48 -7.5t52 -27.5l244 -162l-72 -113z" />
<glyph unicode="&#xd3;" horiz-adv-x="1697" d="M127 705q0 158 53 293t148.5 233t227.5 154.5t292 56.5t293 -56.5t228 -154.5t148.5 -233t53.5 -293t-53.5 -293.5t-148.5 -234.5t-228 -155.5t-293 -56.5t-292 56.5t-227.5 155.5t-148.5 234.5t-53 293.5zM358 705q0 -119 35 -220.5t99.5 -175t155.5 -115.5t202 -42 t201 42t154.5 115.5t99 175t34.5 220.5t-34.5 219t-99 173.5t-154.5 114.5t-201 41t-202 -41t-155.5 -114.5t-99.5 -174t-35 -218.5zM625 1632l243 162q31 20 52.5 27.5t48.5 7.5q39 0 65.5 -15.5t43 -36t23.5 -42t7 -33.5l-412 -183z" />
<glyph unicode="&#xd4;" horiz-adv-x="1697" d="M127 705q0 158 53 293t148.5 233t227.5 154.5t292 56.5t293 -56.5t228 -154.5t148.5 -233t53.5 -293t-53.5 -293.5t-148.5 -234.5t-228 -155.5t-293 -56.5t-292 56.5t-227.5 155.5t-148.5 234.5t-53 293.5zM358 705q0 -119 35 -220.5t99.5 -175t155.5 -115.5t202 -42 t201 42t154.5 115.5t99 175t34.5 220.5t-34.5 219t-99 173.5t-154.5 114.5t-201 41t-202 -41t-155.5 -114.5t-99.5 -174t-35 -218.5zM516 1605l199 158q35 29 64.5 47.5t70.5 18.5q37 0 70 -20.5t63 -45.5l199 -158l-84 -86l-248 140l-252 -140z" />
<glyph unicode="&#xd5;" horiz-adv-x="1697" d="M127 705q0 158 53 293t148.5 233t227.5 154.5t292 56.5t293 -56.5t228 -154.5t148.5 -233t53.5 -293t-53.5 -293.5t-148.5 -234.5t-228 -155.5t-293 -56.5t-292 56.5t-227.5 155.5t-148.5 234.5t-53 293.5zM358 705q0 -119 35 -220.5t99.5 -175t155.5 -115.5t202 -42 t201 42t154.5 115.5t99 175t34.5 220.5t-34.5 219t-99 173.5t-154.5 114.5t-201 41t-202 -41t-155.5 -114.5t-99.5 -174t-35 -218.5zM502 1558q8 39 22.5 77t40 68.5t62.5 49t88 18.5q47 0 87 -9t75 -21l53 -19q16 -4 33.5 -8t34.5 -4q31 0 47 18.5t26 55.5l148 -25 q-8 -41 -23.5 -79t-42 -67.5t-63.5 -48t-88 -18.5q-45 0 -81 9t-69 20l-53 16q-18 6 -37.5 11t-42.5 5q-29 0 -45 -18t-27 -57z" />
<glyph unicode="&#xd6;" horiz-adv-x="1697" d="M127 705q0 158 53 293t148.5 233t227.5 154.5t292 56.5t293 -56.5t228 -154.5t148.5 -233t53.5 -293t-53.5 -293.5t-148.5 -234.5t-228 -155.5t-293 -56.5t-292 56.5t-227.5 155.5t-148.5 234.5t-53 293.5zM358 705q0 -119 35 -220.5t99.5 -175t155.5 -115.5t202 -42 t201 42t154.5 115.5t99 175t34.5 220.5t-34.5 219t-99 173.5t-154.5 114.5t-201 41t-202 -41t-155.5 -114.5t-99.5 -174t-35 -218.5zM504 1655q0 25 10 47t28.5 39.5t42 27.5t48.5 10q53 0 92 -38.5t39 -85.5q0 -23 -10.5 -45.5t-29 -40t-41.5 -28.5t-50 -11q-51 0 -90 38.5 t-39 86.5zM930 1655q0 25 10 47t28.5 39.5t42 27.5t50.5 10q53 0 92 -38.5t39 -85.5q0 -23 -10.5 -45.5t-29 -40t-41.5 -28.5t-50 -11q-53 0 -92 38.5t-39 86.5z" />
<glyph unicode="&#xd7;" d="M254 397l281 291l-246 234q-35 35 -35 65q0 35 37 72q23 23 45 37t33 18l295 -285l227 238q39 41 76 41q29 0 65 -33q25 -23 37 -45t16 -35l-284 -293l246 -231q33 -33 32 -65q0 -37 -35 -72q-23 -23 -45 -37t-32 -18l-295 282l-223 -233q-23 -23 -40.5 -32t-35.5 -9 q-35 0 -66 30q-25 23 -37 46.5t-16 33.5z" />
<glyph unicode="&#xd8;" horiz-adv-x="1697" d="M127 705q0 158 53 293t148.5 233t227.5 154.5t292 56.5q135 0 250 -43l55 106q16 35 40 58.5t77 23.5q45 0 77.5 -14t38.5 -21l-118 -235q141 -98 222 -257t81 -355q0 -158 -53.5 -293.5t-148.5 -234.5t-228 -155.5t-293 -56.5q-131 0 -244 41l-94 -186h-209l133 268 q-143 98 -225 258t-82 359zM358 705q0 -135 45.5 -246t124.5 -185l484 949q-74 31 -162 30q-111 0 -202 -41t-155.5 -114.5t-99.5 -173.5t-35 -219zM690 180q76 -29 160 -28q111 0 201 42t154.5 115.5t99 175t34.5 220.5q0 131 -44 240.5t-121 182.5z" />
<glyph unicode="&#xd9;" horiz-adv-x="1585" d="M172 618v685q0 53 30.5 78.5t86.5 25.5q35 0 63.5 -9t38.5 -16v-743q0 -115 20.5 -205t67.5 -153.5t124 -97t190 -33.5t189.5 33.5t123.5 97t67.5 153.5t20.5 205v664q0 104 115 104q37 0 65.5 -9t38.5 -16v-764q0 -324 -152.5 -488.5t-467.5 -164.5t-468 165t-153 488z M546 1702q0 12 7.5 33.5t23.5 42t43 36t66 15.5q27 0 48 -7.5t52 -27.5l244 -162l-72 -113z" />
<glyph unicode="&#xda;" horiz-adv-x="1585" d="M172 618v685q0 53 30.5 78.5t86.5 25.5q35 0 63.5 -9t38.5 -16v-743q0 -115 20.5 -205t67.5 -153.5t124 -97t190 -33.5t189.5 33.5t123.5 97t67.5 153.5t20.5 205v664q0 104 115 104q37 0 65.5 -9t38.5 -16v-764q0 -324 -152.5 -488.5t-467.5 -164.5t-468 165t-153 488z M611 1632l243 162q31 20 52.5 27.5t48.5 7.5q39 0 65.5 -15.5t43 -36t23.5 -42t7 -33.5l-412 -183z" />
<glyph unicode="&#xdb;" horiz-adv-x="1585" d="M172 618v685q0 53 30.5 78.5t86.5 25.5q35 0 63.5 -9t38.5 -16v-743q0 -115 20.5 -205t67.5 -153.5t124 -97t190 -33.5t189.5 33.5t123.5 97t67.5 153.5t20.5 205v664q0 104 115 104q37 0 65.5 -9t38.5 -16v-764q0 -324 -152.5 -488.5t-467.5 -164.5t-468 165t-153 488z M489 1605l199 158q35 29 64.5 47.5t70.5 18.5q37 0 70 -20.5t63 -45.5l199 -158l-84 -86l-248 140l-252 -140z" />
<glyph unicode="&#xdc;" horiz-adv-x="1585" d="M172 618v685q0 53 30.5 78.5t86.5 25.5q35 0 63.5 -9t38.5 -16v-743q0 -115 20.5 -205t67.5 -153.5t124 -97t190 -33.5t189.5 33.5t123.5 97t67.5 153.5t20.5 205v664q0 104 115 104q37 0 65.5 -9t38.5 -16v-764q0 -324 -152.5 -488.5t-467.5 -164.5t-468 165t-153 488z M478 1655q0 25 10 47t28.5 39.5t42 27.5t48.5 10q53 0 92 -38.5t39 -85.5q0 -23 -10.5 -45.5t-29 -40t-41.5 -28.5t-50 -11q-51 0 -90 38.5t-39 86.5zM904 1655q0 25 10 47t28.5 39.5t42 27.5t50.5 10q53 0 92 -38.5t39 -85.5q0 -23 -10.5 -45.5t-29 -40t-41.5 -28.5 t-50 -11q-53 0 -92 38.5t-39 86.5z" />
<glyph unicode="&#xdd;" horiz-adv-x="1376" d="M29 1305q0 35 21.5 68.5t84.5 33.5q41 0 63.5 -10.5t30.5 -16.5q18 -27 69.5 -103.5t116 -173.5t135.5 -199.5t132 -180.5q53 76 107.5 159t103.5 160.5t91 144t71 109.5q33 49 64.5 80t90.5 31q25 0 46.5 -6t38 -14.5t26.5 -16.5t12 -10q-16 -31 -51 -88.5t-81 -130 t-99 -155.5t-108.5 -165t-107.5 -157.5t-98 -133.5v-530h-229v532q-55 68 -119.5 154t-126 172t-115.5 162t-87 123q-35 47 -58.5 87t-23.5 75zM510 1643l211 170q29 23 49.5 32t46.5 9q33 0 55.5 -14.5t37 -34t20.5 -39t6 -27.5l-354 -199z" />
<glyph unicode="&#xde;" horiz-adv-x="1292" d="M188 0v1303q0 53 31 78.5t86 25.5q35 0 63.5 -9t39.5 -16v-219h301q119 0 209 -36.5t148 -99t88 -145.5t30 -175q0 -88 -31 -171t-97.5 -146.5t-170 -102.5t-246.5 -39q-98 0 -156.5 9t-74.5 13v-270h-220zM408 446q25 -4 76 -11t114 -7q100 0 169 22.5t111 60.5t60 88.5 t18 107.5t-15 107t-50 88t-91.5 59.5t-140.5 21.5h-251v-537z" />
<glyph unicode="&#xdf;" horiz-adv-x="1296" d="M129 0v1069q0 94 25.5 175t83 139.5t147.5 92t219 33.5t216 -33.5t139.5 -87t75 -117t22.5 -124.5q0 -53 -14.5 -99.5t-38 -85t-54 -66.5t-63.5 -42q66 -16 123 -48t100 -84t67.5 -124t24.5 -166q0 -106 -36 -191t-99 -143.5t-151.5 -89.5t-190.5 -31q-100 0 -169 18.5 t-83 24.5l41 162q6 -4 23.5 -9t44 -10t56.5 -9t60 -4q70 0 122 22.5t88 60t54.5 89t18.5 108.5q0 143 -84 222t-248 79h-106v176h69q115 0 174.5 63.5t59.5 164.5q0 43 -15.5 81.5t-46 68.5t-76.5 47.5t-108 17.5q-76 0 -126 -22.5t-79.5 -61.5t-42 -92.5t-12.5 -114.5 v-1059h-211z" />
<glyph unicode="&#xe0;" horiz-adv-x="1218" d="M104 301q0 80 25 143.5t80 106.5t146 66.5t225 23.5q92 0 166.5 -4t99.5 -8v10q0 33 -6 61q-16 96 -89 146.5t-216 50.5q-59 0 -105.5 -10t-80.5 -23.5t-56.5 -29t-36.5 -25.5q-23 14 -39 41t-16 61q0 35 19.5 58.5t51.5 40.5q35 16 96.5 31.5t153.5 15.5 q123 0 221.5 -22.5t167 -75t105.5 -136.5t37 -205v-612q-37 -8 -155 -21.5t-306 -13.5q-154 0 -249 28t-148.5 74t-72 105.5t-18.5 122.5zM315 305q0 -41 12.5 -75.5t45.5 -59.5t88 -38t139 -13q104 0 163.5 8t80.5 14v340q-6 2 -31 4t-59.5 5.5t-74.5 5.5t-77 2 q-154 0 -220.5 -47.5t-66.5 -145.5zM371 1358q0 8 6 27.5t20.5 39t36 34t56.5 14.5q27 0 47 -9.5t49 -31.5l211 -170l-72 -103z" />
<glyph unicode="&#xe1;" horiz-adv-x="1218" d="M104 301q0 80 25 143.5t80 106.5t146 66.5t225 23.5q92 0 166.5 -4t99.5 -8v10q0 33 -6 61q-16 96 -89 146.5t-216 50.5q-59 0 -105.5 -10t-80.5 -23.5t-56.5 -29t-36.5 -25.5q-23 14 -39 41t-16 61q0 35 19.5 58.5t51.5 40.5q35 16 96.5 31.5t153.5 15.5 q123 0 221.5 -22.5t167 -75t105.5 -136.5t37 -205v-612q-37 -8 -155 -21.5t-306 -13.5q-154 0 -249 28t-148.5 74t-72 105.5t-18.5 122.5zM315 305q0 -41 12.5 -75.5t45.5 -59.5t88 -38t139 -13q104 0 163.5 8t80.5 14v340q-6 2 -31 4t-59.5 5.5t-74.5 5.5t-77 2 q-154 0 -220.5 -47.5t-66.5 -145.5zM477 1262l211 170q29 23 49.5 32t46.5 9q33 0 55.5 -14.5t37 -34t20.5 -39t6 -27.5l-354 -199z" />
<glyph unicode="&#xe2;" horiz-adv-x="1218" d="M104 301q0 80 25 143.5t80 106.5t146 66.5t225 23.5q92 0 166.5 -4t99.5 -8v10q0 33 -6 61q-16 96 -89 146.5t-216 50.5q-59 0 -105.5 -10t-80.5 -23.5t-56.5 -29t-36.5 -25.5q-23 14 -39 41t-16 61q0 35 19.5 58.5t51.5 40.5q35 16 96.5 31.5t153.5 15.5 q123 0 221.5 -22.5t167 -75t105.5 -136.5t37 -205v-612q-37 -8 -155 -21.5t-306 -13.5q-154 0 -249 28t-148.5 74t-72 105.5t-18.5 122.5zM315 305q0 -41 12.5 -75.5t45.5 -59.5t88 -38t139 -13q104 0 163.5 8t80.5 14v340q-6 2 -31 4t-59.5 5.5t-74.5 5.5t-77 2 q-154 0 -220.5 -47.5t-66.5 -145.5zM326 1245l178 166q29 29 56.5 47.5t64.5 18.5t64.5 -19.5t56.5 -46.5l178 -166l-84 -86l-215 154l-215 -154z" />
<glyph unicode="&#xe3;" horiz-adv-x="1218" d="M104 301q0 80 25 143.5t80 106.5t146 66.5t225 23.5q92 0 166.5 -4t99.5 -8v10q0 33 -6 61q-16 96 -89 146.5t-216 50.5q-59 0 -105.5 -10t-80.5 -23.5t-56.5 -29t-36.5 -25.5q-23 14 -39 41t-16 61q0 35 19.5 58.5t51.5 40.5q35 16 96.5 31.5t153.5 15.5 q123 0 221.5 -22.5t167 -75t105.5 -136.5t37 -205v-612q-37 -8 -155 -21.5t-306 -13.5q-154 0 -249 28t-148.5 74t-72 105.5t-18.5 122.5zM265 1200q8 37 23.5 75t40 66.5t61 47t86.5 18.5q47 0 86 -9t73 -22l37 -12q18 -4 42 -11t46 -7q33 0 50.5 18t27.5 55l139 -24 q-8 -39 -23.5 -76t-41 -66.5t-62 -47t-86.5 -17.5q-43 0 -78.5 9t-70.5 20l-49 14q-23 8 -43.5 13t-42.5 5q-31 0 -48.5 -18.5t-27.5 -56.5zM315 305q0 -41 12.5 -75.5t45.5 -59.5t88 -38t139 -13q104 0 163.5 8t80.5 14v340q-6 2 -31 4t-59.5 5.5t-74.5 5.5t-77 2 q-154 0 -220.5 -47.5t-66.5 -145.5z" />
<glyph unicode="&#xe4;" horiz-adv-x="1218" d="M104 301q0 80 25 143.5t80 106.5t146 66.5t225 23.5q92 0 166.5 -4t99.5 -8v10q0 33 -6 61q-16 96 -89 146.5t-216 50.5q-59 0 -105.5 -10t-80.5 -23.5t-56.5 -29t-36.5 -25.5q-23 14 -39 41t-16 61q0 35 19.5 58.5t51.5 40.5q35 16 96.5 31.5t153.5 15.5 q123 0 221.5 -22.5t167 -75t105.5 -136.5t37 -205v-612q-37 -8 -155 -21.5t-306 -13.5q-154 0 -249 28t-148.5 74t-72 105.5t-18.5 122.5zM293 1296q0 47 39 84t88 37q53 0 90 -37t37 -84t-37 -84.5t-90 -37.5q-49 0 -88 37.5t-39 84.5zM315 305q0 -41 12.5 -75.5 t45.5 -59.5t88 -38t139 -13q104 0 163.5 8t80.5 14v340q-6 2 -31 4t-59.5 5.5t-74.5 5.5t-77 2q-154 0 -220.5 -47.5t-66.5 -145.5zM695 1296q0 47 38 84t89 37q53 0 90 -37t37 -84t-37 -84.5t-90 -37.5q-51 0 -89 37.5t-38 84.5z" />
<glyph unicode="&#xe5;" horiz-adv-x="1218" d="M104 301q0 80 25 143.5t80 106.5t146 66.5t225 23.5q92 0 166.5 -4t99.5 -8v10q0 33 -6 61q-16 96 -89 146.5t-216 50.5q-59 0 -105.5 -10t-80.5 -23.5t-56.5 -29t-36.5 -25.5q-23 14 -39 41t-16 61q0 35 19.5 58.5t51.5 40.5q35 16 96.5 31.5t153.5 15.5 q123 0 221.5 -22.5t167 -75t105.5 -136.5t37 -205v-612q-37 -8 -155 -21.5t-306 -13.5q-154 0 -249 28t-148.5 74t-72 105.5t-18.5 122.5zM315 305q0 -41 12.5 -75.5t45.5 -59.5t88 -38t139 -13q104 0 163.5 8t80.5 14v340q-6 2 -31 4t-59.5 5.5t-74.5 5.5t-77 2 q-154 0 -220.5 -47.5t-66.5 -145.5zM418 1352q0 43 16.5 79.5t45 65.5t67.5 45.5t82 16.5t82 -16.5t67.5 -45.5t45 -65.5t16.5 -79.5t-16.5 -80t-45 -65.5t-67.5 -45t-82 -16.5t-82 16.5t-67.5 45t-45 65.5t-16.5 80zM525 1352q0 -47 28.5 -79t75.5 -32t75.5 32t28.5 79 t-28.5 77.5t-75.5 30.5t-75.5 -30.5t-28.5 -77.5z" />
<glyph unicode="&#xe6;" horiz-adv-x="1933" d="M104 301q0 80 25 143.5t80 106.5t146 66.5t225 23.5q92 0 166.5 -4t99.5 -8q0 37 -6 71q-14 96 -88 146.5t-217 50.5q-59 0 -105.5 -10t-80.5 -23.5t-56.5 -29t-36.5 -25.5q-23 14 -39 41t-16 61q0 35 19.5 58.5t53.5 40.5q35 16 97.5 31.5t158.5 15.5q164 0 274.5 -43 t170.5 -148q63 90 169.5 141.5t237.5 51.5q106 0 189.5 -29t139.5 -81t85 -123.5t29 -157.5q0 -119 -64.5 -186.5t-222.5 -67.5h-481q20 -129 109 -199t239 -70q117 0 191.5 24t101.5 38q16 -37 33.5 -75t33.5 -77q-10 -6 -42.5 -20.5t-83 -28.5t-116 -25.5t-145.5 -11.5 q-70 0 -128 13.5t-106 32t-84 41t-61 40.5q-18 -12 -53 -33.5t-89 -41t-126 -35t-162 -15.5q-143 0 -233 28t-141.5 74t-71 105.5t-19.5 122.5zM315 305q0 -84 57.5 -135t211.5 -51q68 0 122 12t94 28.5t65.5 33t35.5 22.5q-20 33 -40.5 93.5t-20.5 131.5v43q-12 2 -38 4 l-58.5 4.5t-69.5 4.5t-72 2q-154 0 -220.5 -47.5t-66.5 -145.5zM1053 563h432q74 0 106.5 26.5t32.5 98.5q0 39 -13.5 78t-42 69.5t-76.5 50t-116 19.5q-80 0 -140 -31.5t-100 -81t-60.5 -109.5t-22.5 -120z" />
<glyph unicode="&#xe7;" horiz-adv-x="1087" d="M115 510q0 129 42 230.5t115.5 172t173 107.5t213.5 37q70 0 122.5 -8.5t90 -20.5t60 -24.5t35.5 -20.5q20 -16 34.5 -38.5t14.5 -53.5q0 -25 -16.5 -58.5t-49.5 -58.5q-12 12 -34.5 30.5t-57.5 36t-81 30t-103 12.5q-72 0 -133.5 -23.5t-107.5 -70t-72.5 -115 t-26.5 -160.5q0 -96 26.5 -164.5t73.5 -115t108.5 -68t133.5 -21.5q51 0 94 10.5t76 22.5t54.5 24.5t29.5 18.5l90 -145q-18 -12 -51 -30.5t-79 -35t-105.5 -28t-133.5 -11.5q-113 0 -211 36t-169.5 104.5t-113.5 169t-42 229.5zM330 -383l47 104q2 -2 16 -8t37 -12 t49.5 -11t52.5 -5q47 0 71 14t24 51q0 20 -13.5 33.5t-32 21t-39 11.5t-34.5 4l37 108q39 -2 81 -12t77.5 -30.5t59 -52.5t23.5 -79q0 -86 -62.5 -135t-172.5 -49q-104 0 -160.5 21.5t-60.5 25.5z" />
<glyph unicode="&#xe8;" horiz-adv-x="1212" d="M115 498q0 125 40 228t111.5 178t170 116t216.5 41q111 0 196 -30t141.5 -82t86 -123.5t29.5 -157.5q0 -119 -65.5 -186.5t-223.5 -67.5h-479q18 -129 107.5 -199t240.5 -70q117 0 191.5 24t101.5 40l65 -154q-10 -6 -41.5 -21.5t-82 -29.5t-117 -25.5t-144.5 -11.5 q-115 0 -214 33t-172.5 98.5t-115.5 166t-42 233.5zM332 563h432q74 0 106.5 26.5t32.5 98.5q0 39 -13 78t-44 69.5t-79 50t-116 19.5q-78 0 -137 -31.5t-99 -81t-60.5 -109.5t-22.5 -120zM424 1358q0 8 6 27.5t20.5 39t36 34t56.5 14.5q27 0 47 -9.5t49 -31.5l211 -170 l-72 -103z" />
<glyph unicode="&#xe9;" horiz-adv-x="1212" d="M115 498q0 125 40 228t111.5 178t170 116t216.5 41q111 0 196 -30t141.5 -82t86 -123.5t29.5 -157.5q0 -119 -65.5 -186.5t-223.5 -67.5h-479q18 -129 107.5 -199t240.5 -70q117 0 191.5 24t101.5 40l65 -154q-10 -6 -41.5 -21.5t-82 -29.5t-117 -25.5t-144.5 -11.5 q-115 0 -214 33t-172.5 98.5t-115.5 166t-42 233.5zM332 563h432q74 0 106.5 26.5t32.5 98.5q0 39 -13 78t-44 69.5t-79 50t-116 19.5q-78 0 -137 -31.5t-99 -81t-60.5 -109.5t-22.5 -120zM518 1262l211 170q29 23 49.5 32t46.5 9q33 0 55.5 -14.5t37 -34t20.5 -39t6 -27.5 l-354 -199z" />
<glyph unicode="&#xea;" horiz-adv-x="1212" d="M115 498q0 125 40 228t111.5 178t170 116t216.5 41q111 0 196 -30t141.5 -82t86 -123.5t29.5 -157.5q0 -119 -65.5 -186.5t-223.5 -67.5h-479q18 -129 107.5 -199t240.5 -70q117 0 191.5 24t101.5 40l65 -154q-10 -6 -41.5 -21.5t-82 -29.5t-117 -25.5t-144.5 -11.5 q-115 0 -214 33t-172.5 98.5t-115.5 166t-42 233.5zM332 563h432q74 0 106.5 26.5t32.5 98.5q0 39 -13 78t-44 69.5t-79 50t-116 19.5q-78 0 -137 -31.5t-99 -81t-60.5 -109.5t-22.5 -120zM363 1245l178 166q29 29 56.5 47.5t64.5 18.5t64.5 -19.5t56.5 -46.5l178 -166 l-84 -86l-215 154l-215 -154z" />
<glyph unicode="&#xeb;" horiz-adv-x="1212" d="M115 498q0 125 40 228t111.5 178t170 116t216.5 41q111 0 196 -30t141.5 -82t86 -123.5t29.5 -157.5q0 -119 -65.5 -186.5t-223.5 -67.5h-479q18 -129 107.5 -199t240.5 -70q117 0 191.5 24t101.5 40l65 -154q-10 -6 -41.5 -21.5t-82 -29.5t-117 -25.5t-144.5 -11.5 q-115 0 -214 33t-172.5 98.5t-115.5 166t-42 233.5zM332 563h432q74 0 106.5 26.5t32.5 98.5q0 39 -13 78t-44 69.5t-79 50t-116 19.5q-78 0 -137 -31.5t-99 -81t-60.5 -109.5t-22.5 -120zM336 1296q0 47 39 84t88 37q53 0 90 -37t37 -84t-37 -84.5t-90 -37.5 q-49 0 -88 37.5t-39 84.5zM738 1296q0 47 38 84t89 37q53 0 90 -37t37 -84t-37 -84.5t-90 -37.5q-51 0 -89 37.5t-38 84.5z" />
<glyph unicode="&#xec;" horiz-adv-x="577" d="M39 1358q0 8 6 27.5t20.5 39t36 34t56.5 14.5q27 0 47 -9.5t49 -31.5l211 -170l-72 -103zM182 0v932q0 51 30 73.5t83 22.5q35 0 62.5 -7t37.5 -11v-1010h-213z" />
<glyph unicode="&#xed;" horiz-adv-x="577" d="M133 1262l211 170q29 23 49.5 32t46.5 9q33 0 55.5 -14.5t37 -34t20.5 -39t6 -27.5l-354 -199zM182 0v932q0 51 30 73.5t83 22.5q35 0 62.5 -7t37.5 -11v-1010h-213z" />
<glyph unicode="&#xee;" horiz-adv-x="577" d="M0 1245l178 166q29 29 56.5 47.5t64.5 18.5t64.5 -19.5t56.5 -46.5l178 -166l-84 -86l-215 154l-215 -154zM182 0v932q0 51 30 73.5t83 22.5q35 0 62.5 -7t37.5 -11v-1010h-213z" />
<glyph unicode="&#xef;" horiz-adv-x="577" d="M-29 1296q0 47 39 84t88 37q53 0 90 -37t37 -84t-37 -84.5t-90 -37.5q-49 0 -88 37.5t-39 84.5zM182 0v932q0 51 30 73.5t83 22.5q35 0 62.5 -7t37.5 -11v-1010h-213zM373 1296q0 47 38 84t89 37q53 0 90 -37t37 -84t-37 -84.5t-90 -37.5q-51 0 -89 37.5t-38 84.5z" />
<glyph unicode="&#xf0;" horiz-adv-x="1320" d="M115 469q0 113 37.5 205t104.5 156.5t157 100.5t192 36q63 0 117.5 -12.5t97.5 -31t75 -41t48 -42.5q-18 78 -79.5 178t-168.5 186l-274 -153l-68 118l215 121q-76 43 -172 76l64 143q152 -47 280 -123l222 123l63 -120l-162 -91q90 -74 154.5 -161.5t106.5 -183 t61.5 -196t19.5 -198.5q0 -147 -39 -259t-109.5 -185.5t-171 -110.5t-224.5 -37q-123 0 -224.5 37t-173 102.5t-110.5 158.5t-39 204zM334 469q0 -72 22.5 -131t65.5 -103.5t103.5 -69t136.5 -24.5t136 24.5t102 69t64.5 103.5t22.5 131q0 147 -86 239.5t-239 92.5 q-78 0 -138.5 -24.5t-102.5 -68.5t-64.5 -104.5t-22.5 -134.5z" />
<glyph unicode="&#xf1;" horiz-adv-x="1296" d="M168 0v971q8 4 45 18.5t98.5 30.5t143.5 28.5t180 12.5q113 0 205 -30t156.5 -85t99 -133t34.5 -176v-637h-210v578q0 150 -72 227.5t-225 77.5q-104 0 -166 -19.5t-78 -27.5v-836h-211zM308 1200q8 37 23.5 75t40 66.5t61 47t86.5 18.5q47 0 86 -9t73 -22l37 -12 q18 -4 42 -11t46 -7q33 0 50.5 18t27.5 55l139 -24q-8 -39 -23.5 -76t-41 -66.5t-62 -47t-86.5 -17.5q-43 0 -78.5 9t-70.5 20l-49 14q-23 8 -43.5 13t-42.5 5q-31 0 -48.5 -18.5t-27.5 -56.5z" />
<glyph unicode="&#xf2;" horiz-adv-x="1320" d="M115 514q0 117 40 217t111.5 173t173 115t222.5 42t221 -42t171.5 -115t111.5 -173t40 -217t-40 -217t-111.5 -173t-172 -115t-220.5 -42q-121 0 -222.5 42t-173 115t-111.5 173t-40 217zM334 514q0 -82 22.5 -150.5t64.5 -118.5t102.5 -78t138.5 -28q76 0 136 28t102 78 t64.5 118.5t22.5 150.5t-22.5 150.5t-64.5 119t-102.5 78t-135.5 27.5q-78 0 -138.5 -27.5t-102.5 -78t-64.5 -119t-22.5 -150.5zM422 1358q0 8 6 27.5t20.5 39t36 34t56.5 14.5q27 0 47 -9.5t49 -31.5l211 -170l-72 -103z" />
<glyph unicode="&#xf3;" horiz-adv-x="1320" d="M115 514q0 117 40 217t111.5 173t173 115t222.5 42t221 -42t171.5 -115t111.5 -173t40 -217t-40 -217t-111.5 -173t-172 -115t-220.5 -42q-121 0 -222.5 42t-173 115t-111.5 173t-40 217zM334 514q0 -82 22.5 -150.5t64.5 -118.5t102.5 -78t138.5 -28q76 0 136 28t102 78 t64.5 118.5t22.5 150.5t-22.5 150.5t-64.5 119t-102.5 78t-135.5 27.5q-78 0 -138.5 -27.5t-102.5 -78t-64.5 -119t-22.5 -150.5zM534 1262l211 170q29 23 49.5 32t46.5 9q33 0 55.5 -14.5t37 -34t20.5 -39t6 -27.5l-354 -199z" />
<glyph unicode="&#xf4;" horiz-adv-x="1320" d="M115 514q0 117 40 217t111.5 173t173 115t222.5 42t221 -42t171.5 -115t111.5 -173t40 -217t-40 -217t-111.5 -173t-172 -115t-220.5 -42q-121 0 -222.5 42t-173 115t-111.5 173t-40 217zM334 514q0 -82 22.5 -150.5t64.5 -118.5t102.5 -78t138.5 -28q76 0 136 28t102 78 t64.5 118.5t22.5 150.5t-22.5 150.5t-64.5 119t-102.5 78t-135.5 27.5q-78 0 -138.5 -27.5t-102.5 -78t-64.5 -119t-22.5 -150.5zM360 1245l178 166q29 29 56.5 47.5t64.5 18.5t64.5 -19.5t56.5 -46.5l178 -166l-84 -86l-215 154l-215 -154z" />
<glyph unicode="&#xf5;" horiz-adv-x="1320" d="M115 514q0 117 40 217t111.5 173t173 115t222.5 42t221 -42t171.5 -115t111.5 -173t40 -217t-40 -217t-111.5 -173t-172 -115t-220.5 -42q-121 0 -222.5 42t-173 115t-111.5 173t-40 217zM306 1200q8 37 23.5 75t40 66.5t61 47t86.5 18.5q47 0 86 -9t73 -22l37 -12 q18 -4 42 -11t46 -7q33 0 50.5 18t27.5 55l139 -24q-8 -39 -23.5 -76t-41 -66.5t-62 -47t-86.5 -17.5q-43 0 -78.5 9t-70.5 20l-49 14q-23 8 -43.5 13t-42.5 5q-31 0 -48.5 -18.5t-27.5 -56.5zM334 514q0 -82 22.5 -150.5t64.5 -118.5t102.5 -78t138.5 -28q76 0 136 28 t102 78t64.5 118.5t22.5 150.5t-22.5 150.5t-64.5 119t-102.5 78t-135.5 27.5q-78 0 -138.5 -27.5t-102.5 -78t-64.5 -119t-22.5 -150.5z" />
<glyph unicode="&#xf6;" horiz-adv-x="1320" d="M115 514q0 117 40 217t111.5 173t173 115t222.5 42t221 -42t171.5 -115t111.5 -173t40 -217t-40 -217t-111.5 -173t-172 -115t-220.5 -42q-121 0 -222.5 42t-173 115t-111.5 173t-40 217zM334 514q0 -82 22.5 -150.5t64.5 -118.5t102.5 -78t138.5 -28q76 0 136 28t102 78 t64.5 118.5t22.5 150.5t-22.5 150.5t-64.5 119t-102.5 78t-135.5 27.5q-78 0 -138.5 -27.5t-102.5 -78t-64.5 -119t-22.5 -150.5zM338 1296q0 47 39 84t88 37q53 0 90 -37t37 -84t-37 -84.5t-90 -37.5q-49 0 -88 37.5t-39 84.5zM740 1296q0 47 38 84t89 37q53 0 90 -37 t37 -84t-37 -84.5t-90 -37.5q-51 0 -89 37.5t-38 84.5z" />
<glyph unicode="&#xf7;" horiz-adv-x="1320" d="M135 696q0 35 8.5 58.5t14.5 36.5h923q57 0 81 -27t24 -70q0 -35 -9.5 -59.5t-13.5 -34.5h-923q-57 0 -81 25.5t-24 70.5zM518 301q0 59 42 101t102 42q59 0 101 -42t42 -101t-42 -101t-101 -42t-101.5 42t-42.5 101zM518 1092q0 59 42 101t102 42q59 0 101 -42t42 -101 t-42 -101.5t-101 -42.5t-101.5 42.5t-42.5 101.5z" />
<glyph unicode="&#xf8;" horiz-adv-x="1320" d="M115 514q0 117 40 217t111.5 173t173 115t222.5 42q88 0 174 -29l36 74q16 31 36 48t57 17q35 0 62.5 -14t33.5 -20l-86 -168q109 -72 170 -190t61 -265q0 -117 -40 -217t-111.5 -173t-172 -115t-220.5 -42q-92 0 -179 29l-67 -137h-170l100 198q-111 74 -171 192 t-60 265zM334 514q0 -176 98 -281l324 639q-45 16 -94 17q-78 0 -138.5 -27.5t-102.5 -78t-64.5 -119t-22.5 -150.5zM561 156q41 -16 101 -17q76 0 136 28t102 78t64.5 118.5t22.5 150.5q0 176 -98 279z" />
<glyph unicode="&#xf9;" horiz-adv-x="1277" d="M166 436v496q0 49 28.5 72.5t81.5 23.5q35 0 63 -8t38 -12v-549q0 -156 79 -234t267 -78q72 0 116 5.5t60 9.5v770q0 49 28.5 72.5t82.5 23.5q35 0 62.5 -8t37.5 -12v-1008q-14 -4 -50 -8t-87 -9.5t-112.5 -8.5t-125.5 -3q-186 0 -302 45t-183 131q-84 109 -84 289z M383 1358q0 8 6 27.5t20.5 39t36 34t56.5 14.5q27 0 47 -9.5t49 -31.5l211 -170l-72 -103z" />
<glyph unicode="&#xfa;" horiz-adv-x="1277" d="M166 436v496q0 49 28.5 72.5t81.5 23.5q35 0 63 -8t38 -12v-549q0 -156 79 -234t267 -78q72 0 116 5.5t60 9.5v770q0 49 28.5 72.5t82.5 23.5q35 0 62.5 -8t37.5 -12v-1008q-14 -4 -50 -8t-87 -9.5t-112.5 -8.5t-125.5 -3q-186 0 -302 45t-183 131q-84 109 -84 289z M532 1262l211 170q29 23 49.5 32t46.5 9q33 0 55.5 -14.5t37 -34t20.5 -39t6 -27.5l-354 -199z" />
<glyph unicode="&#xfb;" horiz-adv-x="1277" d="M166 436v496q0 49 28.5 72.5t81.5 23.5q35 0 63 -8t38 -12v-549q0 -156 79 -234t267 -78q72 0 116 5.5t60 9.5v770q0 49 28.5 72.5t82.5 23.5q35 0 62.5 -8t37.5 -12v-1008q-14 -4 -50 -8t-87 -9.5t-112.5 -8.5t-125.5 -3q-186 0 -302 45t-183 131q-84 109 -84 289z M354 1245l178 166q29 29 56.5 47.5t64.5 18.5t64.5 -19.5t56.5 -46.5l178 -166l-84 -86l-215 154l-215 -154z" />
<glyph unicode="&#xfc;" horiz-adv-x="1277" d="M166 436v496q0 49 28.5 72.5t81.5 23.5q35 0 63 -8t38 -12v-549q0 -156 79 -234t267 -78q72 0 116 5.5t60 9.5v770q0 49 28.5 72.5t82.5 23.5q35 0 62.5 -8t37.5 -12v-1008q-14 -4 -50 -8t-87 -9.5t-112.5 -8.5t-125.5 -3q-186 0 -302 45t-183 131q-84 109 -84 289z M313 1296q0 47 39 84t88 37q53 0 90 -37t37 -84t-37 -84.5t-90 -37.5q-49 0 -88 37.5t-39 84.5zM715 1296q0 47 38 84t89 37q53 0 90 -37t37 -84t-37 -84.5t-90 -37.5q-51 0 -89 37.5t-38 84.5z" />
<glyph unicode="&#xfd;" horiz-adv-x="1116" d="M-51 -352l69 155q10 -8 52.5 -24.5t95.5 -16.5q41 0 73.5 12.5t63.5 39t59.5 69.5t61.5 103l53 102q-27 43 -66.5 110.5t-84.5 142.5t-90.5 152.5t-84 144.5t-66.5 116t-36 65q-14 29 -24.5 54.5t-10.5 54.5q0 39 23.5 69.5t83.5 30.5q43 0 63.5 -8t24.5 -10 q10 -23 52 -105t97.5 -188.5t117 -219t110.5 -198.5q35 72 74.5 159t76.5 174t70 167t55 135q16 41 42 67.5t83 26.5q47 0 77 -18.5t36 -26.5q-14 -47 -39 -109.5t-53.5 -132t-61.5 -143.5t-65 -143q-66 -145 -136.5 -283.5t-150.5 -275.5q-43 -74 -85 -131.5t-91 -95.5 t-107.5 -58.5t-132.5 -20.5q-51 0 -92 8.5t-70.5 18.5t-47 19.5t-19.5 11.5zM410 1262l211 170q29 23 49.5 32t46.5 9q33 0 55.5 -14.5t37 -34t20.5 -39t6 -27.5l-354 -199z" />
<glyph unicode="&#xfe;" horiz-adv-x="1308" d="M168 -410v1823q0 96 113 96q33 0 60.5 -8t37.5 -12v-455q47 10 104.5 18.5t120.5 8.5q143 0 254 -42t185.5 -117t112.5 -179.5t38 -226.5q0 -125 -37 -220.5t-101.5 -160t-152.5 -97t-190 -32.5q-84 0 -144.5 17t-100.5 40t-61.5 43t-27.5 29v-525h-211zM379 342 q10 -25 29.5 -55.5t53.5 -58t85 -47t129 -19.5q141 0 219 90t78 258q0 80 -22.5 149.5t-67.5 119.5t-114 80t-163 30q-102 0 -157.5 -18.5t-69.5 -24.5v-504z" />
<glyph unicode="&#xff;" horiz-adv-x="1116" d="M-51 -352l69 155q10 -8 52.5 -24.5t95.5 -16.5q41 0 73.5 12.5t63.5 39t59.5 69.5t61.5 103l53 102q-27 43 -66.5 110.5t-84.5 142.5t-90.5 152.5t-84 144.5t-66.5 116t-36 65q-14 29 -24.5 54.5t-10.5 54.5q0 39 23.5 69.5t83.5 30.5q43 0 63.5 -8t24.5 -10 q10 -23 52 -105t97.5 -188.5t117 -219t110.5 -198.5q35 72 74.5 159t76.5 174t70 167t55 135q16 41 42 67.5t83 26.5q47 0 77 -18.5t36 -26.5q-14 -47 -39 -109.5t-53.5 -132t-61.5 -143.5t-65 -143q-66 -145 -136.5 -283.5t-150.5 -275.5q-43 -74 -85 -131.5t-91 -95.5 t-107.5 -58.5t-132.5 -20.5q-51 0 -92 8.5t-70.5 18.5t-47 19.5t-19.5 11.5zM235 1296q0 47 39 84t88 37q53 0 90 -37t37 -84t-37 -84.5t-90 -37.5q-49 0 -88 37.5t-39 84.5zM637 1296q0 47 38 84t89 37q53 0 90 -37t37 -84t-37 -84.5t-90 -37.5q-51 0 -89 37.5t-38 84.5z " />
<glyph unicode="&#x152;" horiz-adv-x="2404" d="M127 705q0 160 52 295t145.5 233t223.5 153.5t286 55.5q102 0 183 -22.5t142.5 -56.5t103.5 -76t66 -79v78q0 16 4 36.5t17.5 39t36 31t59.5 12.5h706q102 0 103 -94q0 -35 -10.5 -61.5t-16.5 -37.5h-690v-399h584q102 0 102 -94q0 -35 -10 -61.5t-16 -36.5h-660v-428 h705v-193h-914v213q-72 -115 -202 -181.5t-291 -66.5q-158 0 -288 55.5t-223.5 154.5t-145.5 234.5t-52 295.5zM356 705q0 -121 35 -222.5t97.5 -175.5t152.5 -114.5t201 -40.5t201 40.5t152 114.5t97 175.5t35 222.5t-35 221t-97 172.5t-152.5 113.5t-200.5 41 q-111 0 -201 -41t-152.5 -113.5t-97.5 -173t-35 -220.5z" />
<glyph unicode="&#x153;" horiz-adv-x="2070" d="M115 514q0 117 40 217t111.5 173t170 115t216.5 42q90 0 162 -23.5t125 -58.5t90 -78t57 -80q20 35 57.5 77t90.5 78t122.5 60.5t158.5 24.5q109 0 192.5 -30t140 -82t86 -123.5t29.5 -157.5q0 -119 -65.5 -186.5t-223.5 -67.5h-479q20 -129 109.5 -199t238.5 -70 q117 0 191.5 24t101.5 40l66 -154q-10 -6 -42 -21.5t-82 -29.5t-116 -25.5t-145 -11.5q-88 0 -160 20.5t-128 51.5t-96 68.5t-61 72.5q-20 -31 -56 -68.5t-89.5 -69.5t-124 -53.5t-158.5 -21.5q-117 0 -215 42t-167.5 115t-108.5 173t-39 217zM334 514q0 -82 22.5 -150.5 t64.5 -118.5t102.5 -78t138.5 -28q76 0 136 28t102 78t64.5 118.5t22.5 150.5t-22.5 150.5t-64.5 119t-102.5 78t-135.5 27.5q-78 0 -138.5 -27.5t-102.5 -78t-64.5 -119t-22.5 -150.5zM1192 563h430q76 0 107.5 26.5t31.5 98.5q0 39 -13 78t-42 69.5t-78 50t-119 19.5 q-78 0 -137 -31.5t-98 -81t-59.5 -109.5t-22.5 -120z" />
<glyph unicode="&#x178;" horiz-adv-x="1376" d="M29 1305q0 35 21.5 68.5t84.5 33.5q41 0 63.5 -10.5t30.5 -16.5q18 -27 69.5 -103.5t116 -173.5t135.5 -199.5t132 -180.5q53 76 107.5 159t103.5 160.5t91 144t71 109.5q33 49 64.5 80t90.5 31q25 0 46.5 -6t38 -14.5t26.5 -16.5t12 -10q-16 -31 -51 -88.5t-81 -130 t-99 -155.5t-108.5 -165t-107.5 -157.5t-98 -133.5v-530h-229v532q-55 68 -119.5 154t-126 172t-115.5 162t-87 123q-35 47 -58.5 87t-23.5 75zM372 1677q0 47 39 84t88 37q53 0 90 -37t37 -84t-37 -84.5t-90 -37.5q-49 0 -88 37.5t-39 84.5zM774 1677q0 47 38 84t89 37 q53 0 90 -37t37 -84t-37 -84.5t-90 -37.5q-51 0 -89 37.5t-38 84.5z" />
<glyph unicode="&#x2c6;" horiz-adv-x="1024" d="M213 1245l178 166q29 29 56.5 47.5t64.5 18.5t64.5 -19.5t56.5 -46.5l178 -166l-84 -86l-215 154l-215 -154z" />
<glyph unicode="&#x2dc;" horiz-adv-x="1024" d="M156 1200q8 37 23.5 75t40 66.5t61 47t86.5 18.5q47 0 86 -9t73 -22l37 -12q18 -4 42 -11t46 -7q33 0 50.5 18t27.5 55l139 -24q-8 -39 -23.5 -76t-41 -66.5t-62 -47t-86.5 -17.5q-43 0 -78.5 9t-70.5 20l-49 14q-23 8 -43.5 13t-42.5 5q-31 0 -48.5 -18.5t-27.5 -56.5z " />
<glyph unicode="&#x2000;" horiz-adv-x="927" />
<glyph unicode="&#x2001;" horiz-adv-x="1854" />
<glyph unicode="&#x2002;" horiz-adv-x="927" />
<glyph unicode="&#x2003;" horiz-adv-x="1854" />
<glyph unicode="&#x2004;" horiz-adv-x="618" />
<glyph unicode="&#x2005;" horiz-adv-x="463" />
<glyph unicode="&#x2006;" horiz-adv-x="309" />
<glyph unicode="&#x2007;" horiz-adv-x="309" />
<glyph unicode="&#x2008;" horiz-adv-x="231" />
<glyph unicode="&#x2009;" horiz-adv-x="370" />
<glyph unicode="&#x200a;" horiz-adv-x="103" />
<glyph unicode="&#x2010;" horiz-adv-x="741" d="M109 561q0 35 9 60.5t13 40.5h391q61 0 86 -31t25 -78q0 -35 -9.5 -60.5t-13.5 -39.5h-391q-61 0 -85.5 30.5t-24.5 77.5z" />
<glyph unicode="&#x2011;" horiz-adv-x="741" d="M109 561q0 35 9 60.5t13 40.5h391q61 0 86 -31t25 -78q0 -35 -9.5 -60.5t-13.5 -39.5h-391q-61 0 -85.5 30.5t-24.5 77.5z" />
<glyph unicode="&#x2012;" horiz-adv-x="741" d="M109 561q0 35 9 60.5t13 40.5h391q61 0 86 -31t25 -78q0 -35 -9.5 -60.5t-13.5 -39.5h-391q-61 0 -85.5 30.5t-24.5 77.5z" />
<glyph unicode="&#x2013;" horiz-adv-x="1024" d="M0 461v192h1024v-192h-1024z" />
<glyph unicode="&#x2014;" horiz-adv-x="2007" d="M0 461v192h2007v-192h-2007z" />
<glyph unicode="&#x2018;" horiz-adv-x="573" d="M127 1038q0 94 36 177t81 147.5t83 103.5t44 43l100 -86q-6 -6 -29.5 -34.5t-52.5 -70.5t-54.5 -91t-31.5 -97q143 -16 143 -149q0 -66 -43 -106.5t-110 -40.5q-63 0 -114.5 47t-51.5 157z" />
<glyph unicode="&#x2019;" horiz-adv-x="573" d="M102 920q6 6 31 34.5t52.5 69.5t53 91t31.5 97q-143 16 -143 150q0 66 43 106.5t111 40.5q31 0 61.5 -11t53 -35.5t36.5 -64.5t14 -95q0 -92 -35.5 -176.5t-80.5 -148t-83 -102t-44 -42.5z" />
<glyph unicode="&#x201a;" horiz-adv-x="573" d="M102 -311q6 6 31 34.5t52.5 69.5t53 91t31.5 98q-143 16 -143 149q0 66 43 107t111 41q63 0 114 -47.5t51 -157.5q0 -94 -35.5 -177t-80.5 -147.5t-83 -103.5t-44 -43z" />
<glyph unicode="&#x201c;" horiz-adv-x="1036" d="M127 1038q0 94 36 177t81 147.5t83 103.5t44 43l100 -86q-6 -6 -29.5 -34.5t-52.5 -70.5t-54.5 -91t-31.5 -97q143 -16 143 -149q0 -66 -43 -106.5t-110 -40.5q-63 0 -114.5 47t-51.5 157zM592 1038q0 94 36 177t80 147.5t81.5 103.5t44.5 43l100 -86q-6 -6 -29.5 -34.5 t-52.5 -70.5t-54.5 -91t-31.5 -97q143 -16 143 -149q0 -66 -43 -106.5t-110 -40.5q-61 0 -112.5 47t-51.5 157z" />
<glyph unicode="&#x201d;" horiz-adv-x="1036" d="M102 920q6 6 31 34.5t52.5 69.5t53 91t31.5 97q-143 16 -143 150q0 66 43 106.5t111 40.5q31 0 61.5 -11t53 -35.5t36.5 -64.5t14 -95q0 -92 -35.5 -176.5t-80.5 -148t-83 -102t-44 -42.5zM565 920q6 6 31 34.5t52.5 69.5t53 91t31.5 97q-143 16 -143 150q0 66 43 106.5 t110 40.5q31 0 62 -11t53.5 -35.5t36.5 -64.5t14 -95q0 -92 -35.5 -176.5t-80.5 -148t-83 -102t-44 -42.5z" />
<glyph unicode="&#x201e;" horiz-adv-x="1069" d="M102 -311q6 6 31 34.5t52.5 69.5t53 91t31.5 98q-143 16 -143 149q0 66 43 107t111 41q63 0 114 -47.5t51 -157.5q0 -94 -35.5 -177t-80.5 -147.5t-83 -103.5t-44 -43zM561 -311q6 6 30.5 34.5t52.5 69.5t53.5 91t31.5 98q-143 16 -143 149q0 66 43 107t110 41 q61 0 112.5 -47.5t51.5 -157.5q0 -94 -36 -177t-80 -147.5t-81.5 -103.5t-43.5 -43z" />
<glyph unicode="&#x2022;" horiz-adv-x="1005" d="M152 700q0 74 26.5 137.5t73.5 111.5t111.5 76t140.5 28t140.5 -28t111.5 -76t73.5 -111.5t26.5 -137.5q0 -72 -26.5 -136t-73.5 -111t-111.5 -75t-140.5 -28t-140.5 28t-111.5 75t-73.5 111.5t-26.5 135.5z" />
<glyph unicode="&#x2026;" horiz-adv-x="1841" d="M154 123q0 66 45 109.5t110 43.5q63 0 107.5 -43.5t44.5 -109.5t-44 -111t-108 -45q-66 0 -110.5 45t-44.5 111zM768 123q0 66 45 109.5t111 43.5q63 0 107 -43.5t44 -109.5t-44 -111t-107 -45q-66 0 -111 45t-45 111zM1380 123q0 66 45 109.5t111 43.5q63 0 107.5 -43.5 t44.5 -109.5t-44.5 -111t-107.5 -45q-66 0 -111 45t-45 111z" />
<glyph unicode="&#x202f;" horiz-adv-x="370" />
<glyph unicode="&#x2039;" horiz-adv-x="649" d="M72 510q0 25 9 45t21 35l340 371l133 -119l-284 -328l284 -324l-131 -118l-329 342q-16 16 -29.5 42.5t-13.5 53.5z" />
<glyph unicode="&#x203a;" horiz-adv-x="649" d="M74 190l284 334l-284 318l133 119l328 -345q16 -16 29.5 -41.5t13.5 -52.5q0 -49 -31 -80l-342 -370z" />
<glyph unicode="&#x205f;" horiz-adv-x="463" />
<glyph unicode="&#x20ac;" d="M92 449v135h148q-2 25 -3 52.5t-1 55.5q0 25 1 48.5t3 45.5h-148v136h168q31 133 91.5 228t142 155.5t179 89t201.5 28.5q76 0 134.5 -8t99.5 -20.5t66.5 -25.5t37.5 -21q70 -41 70 -103q0 -43 -29.5 -75.5t-56.5 -47.5q-39 47 -117 86t-194 39q-61 0 -123 -16.5 t-116 -54t-96 -100t-67 -154.5h492q72 0 72 -68q0 -25 -7.5 -44t-11.5 -24h-567q-4 -23 -4 -47v-49v-55.5t4 -50.5h401q72 0 72 -68q0 -25 -7 -44t-12 -23h-426q27 -88 72 -146.5t100.5 -94.5t118 -50.5t125.5 -14.5t114.5 9.5t90.5 22.5t64.5 26.5t37.5 21.5l74 -151 q-14 -10 -48 -28.5t-84 -36t-118.5 -30t-152.5 -12.5q-98 0 -194.5 24.5t-180.5 81t-148.5 149.5t-97.5 229h-170z" />
<glyph unicode="&#x2122;" horiz-adv-x="2007" d="M8 1331q0 23 7.5 43.5t13.5 30.5h710q76 0 76 -70q0 -23 -7 -43t-11 -30h-310v-715h-161v715h-242q-76 0 -76 69zM905 551q10 195 20.5 387t20.5 385q4 45 33 65.5t63 20.5q45 0 73 -12.5t38 -22.5q23 -43 54.5 -109.5t65.5 -136t62.5 -132t44.5 -99.5q25 49 54.5 109.5 t59.5 121t56.5 115.5t44.5 92q35 74 113 74q35 0 60.5 -9t37.5 -18l45 -831h-157q-2 49 -5 113.5t-6.5 133t-7.5 139.5t-8 136l-3 52.5t-3 39.5q-20 -43 -51 -107.5t-62.5 -132t-59.5 -126t-42 -86.5h-135q-23 49 -51.5 109.5t-57 123t-57.5 120.5t-49 101 q-8 -141 -15.5 -305t-15.5 -311h-160z" />
<glyph unicode="&#xe000;" horiz-adv-x="1024" d="M0 0v1024h1024v-1024h-1024z" />
</font>
</defs>
</svg>
